<svg width="91" height="66" viewBox="0 0 91 66" fill="none" xmlns="http://www.w3.org/2000/svg">
<path d="M72.9033 11.4537H11.5957V63.242H72.9033V11.4537Z" fill="white"/>
<path d="M72.9033 63.7042H11.5957C11.4727 63.7042 11.3549 63.656 11.2679 63.5702C11.181 63.4843 11.1322 63.3679 11.1322 63.2466V11.4537C11.1322 11.3323 11.181 11.2159 11.2679 11.1301C11.3549 11.0442 11.4727 10.996 11.5957 10.996H72.9033C73.0262 10.996 73.1441 11.0442 73.231 11.1301C73.318 11.2159 73.3668 11.3323 73.3668 11.4537V63.2466C73.3668 63.3679 73.318 63.4843 73.231 63.5702C73.1441 63.656 73.0262 63.7042 72.9033 63.7042ZM12.0592 62.7889H72.4398V11.9113H12.0592V62.7889Z" fill="#093F68"/>
<path d="M65.8951 21.3253H58.7525C58.6296 21.3253 58.5117 21.2771 58.4248 21.1913C58.3379 21.1054 58.289 20.989 58.289 20.8677C58.289 20.7463 58.3379 20.6299 58.4248 20.544C58.5117 20.4582 58.6296 20.41 58.7525 20.41H65.8951C66.0181 20.41 66.136 20.4582 66.2229 20.544C66.3098 20.6299 66.3586 20.7463 66.3586 20.8677C66.3586 20.989 66.3098 21.1054 66.2229 21.1913C66.136 21.2771 66.0181 21.3253 65.8951 21.3253Z" fill="#DFEAEF"/>
<path d="M40.0733 49.1508C38.1482 49.1508 36.2663 48.5871 34.6657 47.5311C33.065 46.475 31.8174 44.974 31.0807 43.2179C30.344 41.4617 30.1512 39.5293 30.5268 37.665C30.9024 35.8007 31.8294 34.0882 33.1907 32.7442C34.5519 31.4001 36.2863 30.4847 38.1744 30.1139C40.0626 29.7431 42.0197 29.9334 43.7982 30.6608C45.5768 31.3882 47.097 32.6201 48.1665 34.2005C49.2361 35.781 49.8069 37.6392 49.8069 39.54C49.8069 42.0889 48.7814 44.5335 46.956 46.3358C45.1306 48.1382 42.6549 49.1508 40.0733 49.1508ZM40.0733 30.8857C38.3316 30.8857 36.6289 31.3957 35.1807 32.3512C33.7325 33.3066 32.6037 34.6647 31.9371 36.2536C31.2706 37.8425 31.0962 39.5908 31.436 41.2776C31.7758 42.9643 32.6145 44.5137 33.8462 45.7298C35.0778 46.9459 36.647 47.774 38.3553 48.1096C40.0636 48.4451 41.8343 48.2729 43.4435 47.6147C45.0527 46.9566 46.4281 45.8421 47.3957 44.4121C48.3634 42.9822 48.8799 41.301 48.8799 39.5812C48.8787 37.2758 47.9503 35.0653 46.2989 33.4355C44.6475 31.8058 42.4082 30.8903 40.0733 30.8903V30.8857Z" fill="#DFEAEF"/>
<path d="M54.0387 18.5337H43.3318C43.2088 18.5337 43.0909 18.4854 43.004 18.3996C42.9171 18.3138 42.8683 18.1974 42.8683 18.076C42.8683 17.9546 42.9171 17.8382 43.004 17.7524C43.0909 17.6666 43.2088 17.6183 43.3318 17.6183H54.0387C54.1616 17.6183 54.2795 17.6666 54.3665 17.7524C54.4534 17.8382 54.5022 17.9546 54.5022 18.076C54.5022 18.1974 54.4534 18.3138 54.3665 18.3996C54.2795 18.4854 54.1616 18.5337 54.0387 18.5337Z" fill="#DFEAEF"/>
<path d="M54.0387 22.1949H43.3318C43.2088 22.1949 43.0909 22.1466 43.004 22.0608C42.9171 21.975 42.8683 21.8586 42.8683 21.7372C42.8683 21.6158 42.9171 21.4994 43.004 21.4136C43.0909 21.3278 43.2088 21.2795 43.3318 21.2795H54.0387C54.1616 21.2795 54.2795 21.3278 54.3665 21.4136C54.4534 21.4994 54.5022 21.6158 54.5022 21.7372C54.5022 21.8586 54.4534 21.975 54.3665 22.0608C54.2795 22.1466 54.1616 22.1949 54.0387 22.1949Z" fill="#DFEAEF"/>
<path d="M50.2194 25.7966H43.3318C43.2088 25.7966 43.0909 25.7484 43.004 25.6626C42.9171 25.5767 42.8683 25.4603 42.8683 25.3389C42.8683 25.2176 42.9171 25.1012 43.004 25.0153C43.0909 24.9295 43.2088 24.8813 43.3318 24.8813H50.2194C50.3424 24.8813 50.4603 24.9295 50.5472 25.0153C50.6341 25.1012 50.6829 25.2176 50.6829 25.3389C50.6829 25.4603 50.6341 25.5767 50.5472 25.6626C50.4603 25.7484 50.3424 25.7966 50.2194 25.7966Z" fill="#DFEAEF"/>
<path d="M61.427 59.8416H45.1394C45.0165 59.8416 44.8986 59.7934 44.8117 59.7076C44.7248 59.6217 44.6759 59.5053 44.6759 59.384V52.423C44.6759 52.3016 44.7248 52.1852 44.8117 52.0994C44.8986 52.0136 45.0165 51.9654 45.1394 51.9654H61.427C61.5499 51.9654 61.6678 52.0136 61.7547 52.0994C61.8416 52.1852 61.8905 52.3016 61.8905 52.423V59.384C61.8905 59.5053 61.8416 59.6217 61.7547 59.7076C61.6678 59.7934 61.5499 59.8416 61.427 59.8416ZM45.603 58.9263H60.9635V52.8807H45.603V58.9263Z" fill="#DFEAEF"/>
<path d="M26.1543 50.24C26.0529 50.2385 25.9543 50.2066 25.8716 50.1485C25.774 50.075 25.7099 49.9662 25.6934 49.8461C25.6768 49.726 25.7093 49.6043 25.7835 49.5078C27.3105 47.5159 29.1071 45.7404 31.1231 44.231C31.2222 44.1606 31.3456 44.1316 31.4662 44.1505C31.5868 44.1693 31.6951 44.2345 31.7674 44.3317C31.8034 44.3803 31.8294 44.4355 31.8437 44.4941C31.8581 44.5526 31.8606 44.6134 31.8512 44.6729C31.8417 44.7325 31.8204 44.7896 31.7885 44.841C31.7566 44.8924 31.7148 44.937 31.6654 44.9724C29.7311 46.4346 28.0025 48.1444 26.5251 50.057C26.482 50.1138 26.426 50.1599 26.3616 50.1917C26.2973 50.2235 26.2263 50.24 26.1543 50.24Z" fill="#DFEAEF"/>
<path d="M31.2807 25.9431H22.9376C22.8147 25.9431 22.6968 25.8949 22.6099 25.809C22.5229 25.7232 22.4741 25.6068 22.4741 25.4854C22.4741 25.364 22.5229 25.2476 22.6099 25.1618C22.6968 25.076 22.8147 25.0278 22.9376 25.0278H31.2807C31.4036 25.0278 31.5215 25.076 31.6084 25.1618C31.6953 25.2476 31.7442 25.364 31.7442 25.4854C31.7442 25.6068 31.6953 25.7232 31.6084 25.809C31.5215 25.8949 31.4036 25.9431 31.2807 25.9431Z" fill="#DFEAEF"/>
<path d="M31.2807 30.1993H22.9376C22.8147 30.1993 22.6968 30.1511 22.6099 30.0652C22.5229 29.9794 22.4741 29.863 22.4741 29.7416C22.4741 29.6202 22.5229 29.5038 22.6099 29.418C22.6968 29.3322 22.8147 29.284 22.9376 29.284H31.2807C31.4036 29.284 31.5215 29.3322 31.6084 29.418C31.6953 29.5038 31.7442 29.6202 31.7442 29.7416C31.7442 29.863 31.6953 29.9794 31.6084 30.0652C31.5215 30.1511 31.4036 30.1993 31.2807 30.1993Z" fill="#DFEAEF"/>
<path d="M29.4267 32.4875H26.8033C26.6803 32.4875 26.5624 32.4393 26.4755 32.3535C26.3886 32.2676 26.3398 32.1512 26.3398 32.0299C26.3398 31.9085 26.3886 31.7921 26.4755 31.7062C26.5624 31.6204 26.6803 31.5722 26.8033 31.5722H29.4267C29.5496 31.5722 29.6675 31.6204 29.7544 31.7062C29.8414 31.7921 29.8902 31.9085 29.8902 32.0299C29.8902 32.1512 29.8414 32.2676 29.7544 32.3535C29.6675 32.4393 29.5496 32.4875 29.4267 32.4875Z" fill="#DFEAEF"/>
<path d="M25.5564 34.4554H22.9423C22.8193 34.4554 22.7014 34.4072 22.6145 34.3214C22.5276 34.2356 22.4788 34.1192 22.4788 33.9978C22.4788 33.8764 22.5276 33.76 22.6145 33.6742C22.7014 33.5883 22.8193 33.5401 22.9423 33.5401H25.5564C25.6794 33.5401 25.7972 33.5883 25.8842 33.6742C25.9711 33.76 26.0199 33.8764 26.0199 33.9978C26.0199 34.1192 25.9711 34.2356 25.8842 34.3214C25.7972 34.4072 25.6794 34.4554 25.5564 34.4554Z" fill="#DFEAEF"/>
<path d="M48.6852 32.8216C48.5747 32.8225 48.4675 32.7843 48.3829 32.714C48.2984 32.6436 48.2421 32.5458 48.2242 32.4381C48.2063 32.3304 48.228 32.2199 48.2853 32.1266C48.3427 32.0333 48.4319 31.9633 48.5369 31.9292C48.6806 31.8834 52.1244 30.6752 52.8243 26.3321C52.8339 26.2725 52.8553 26.2154 52.8873 26.164C52.9193 26.1126 52.9613 26.068 53.0108 26.0327C53.0604 25.9974 53.1165 25.9721 53.176 25.9583C53.2354 25.9445 53.2971 25.9424 53.3573 25.9522C53.4783 25.9713 53.5866 26.037 53.6587 26.1347C53.7308 26.2325 53.7607 26.3544 53.7421 26.4739C52.9495 31.3846 49.0004 32.7438 48.8289 32.7987C48.7823 32.813 48.734 32.8207 48.6852 32.8216Z" fill="#DFEAEF"/>
<path d="M21.4266 57.8233C21.3805 57.8303 21.3336 57.8303 21.2875 57.8233C21.1702 57.7875 21.072 57.7071 21.0147 57.5998C20.9573 57.4926 20.9454 57.3672 20.9816 57.2513C21.3322 56.1623 21.7422 55.0929 22.2099 54.0477C22.9793 52.3498 23.911 52.066 24.5645 52.1301C25.5286 52.2216 26.0941 53.1141 26.4185 53.7777C26.743 54.4413 27.0582 54.9493 27.5356 55.0637C27.7223 55.0896 27.9126 55.0721 28.0913 55.0125C28.2699 54.9529 28.432 54.8529 28.5645 54.7204C28.8953 54.3793 29.1691 53.9885 29.3757 53.5626L31.8044 49.192C31.8659 49.0851 31.9678 49.0068 32.0878 48.9742C32.2077 48.9416 32.3359 48.9574 32.4441 49.0181C32.5522 49.0787 32.6316 49.1794 32.6646 49.2978C32.6976 49.4163 32.6817 49.5428 32.6202 49.6496L30.1914 54.0156C29.9345 54.5234 29.5965 54.987 29.1903 55.3886C28.9491 55.6285 28.6511 55.8052 28.3233 55.9027C27.9956 56.0002 27.6483 56.0154 27.3131 55.947C26.3861 55.7227 25.9226 54.8028 25.5935 54.1896C25.3478 53.7319 24.9678 53.082 24.4533 53.0363C23.7951 52.963 23.2852 53.8738 23.0396 54.4092C22.5832 55.4235 22.1855 56.4625 21.8484 57.5213C21.8168 57.6076 21.7598 57.6825 21.6845 57.7364C21.6093 57.7902 21.5195 57.8205 21.4266 57.8233Z" fill="#DFEAEF"/>
<path d="M86.4654 63.2465C86.3959 62.9308 81.3669 29.1146 78.1224 23.5907C75.5499 19.2338 65.3575 19.4398 63.6332 19.9295C61.909 20.4191 50.4744 26.117 49.8996 26.5975C48.5369 27.7462 48.2588 30.6752 51.7815 30.5608C53.0629 31.4366 54.2903 32.3872 55.457 33.4074C57.617 35.2655 57.8394 35.8833 57.8394 35.8833C57.8394 35.8833 63.1836 40.9175 65.4826 42.3454C65.4826 42.3454 64.0597 45.6771 65.6078 47.192C66.7081 48.1999 67.9587 49.0349 69.3158 49.6679L70.6831 63.2511L86.4654 63.2465Z" fill="#FFC9B0"/>
<path d="M86.4654 63.7042H70.6739C70.5578 63.7047 70.4458 63.6621 70.36 63.585C70.2742 63.5079 70.2208 63.4018 70.2104 63.2877L68.8662 49.9654C67.5498 49.3298 66.3374 48.503 65.2694 47.5124C63.8233 46.0982 64.5649 43.4758 64.9079 42.5193C62.4698 40.8626 57.7189 36.4096 57.4918 36.2128C57.4392 36.1625 57.3982 36.1016 57.3713 36.0343C57.3713 36.0343 57.0747 35.4257 55.1233 33.7461C54.0048 32.767 52.8319 31.8503 51.61 31.0001C49.5427 31.0413 48.8521 30.0391 48.6204 29.4441C48.4397 28.8792 48.4312 28.2743 48.5961 27.7047C48.7609 27.1351 49.0917 26.6259 49.5474 26.2405C50.2612 25.641 61.7421 19.9569 63.4525 19.4764C65.3065 18.9638 75.7492 18.7533 78.47 23.3527C81.112 27.8332 84.8014 49.7686 86.7667 62.4502C86.827 62.8621 86.8687 63.1092 86.8733 63.1504C86.8866 63.2169 86.8847 63.2855 86.8679 63.3512C86.8511 63.4169 86.8197 63.478 86.776 63.5303C86.7384 63.5781 86.6916 63.6181 86.6383 63.648C86.585 63.6778 86.5263 63.6969 86.4654 63.7042ZM71.0957 62.7889H85.9278L85.9 62.5921C82.5766 41.1281 79.5917 26.9957 77.7191 23.8195C76.4352 21.6457 73.0841 20.7578 70.4885 20.3963C67.4525 19.9706 64.5371 20.1445 63.7538 20.3642C61.9971 20.8539 50.7757 26.4831 50.1916 26.9453C49.8797 27.2087 49.65 27.5541 49.5294 27.9415C49.4088 28.3288 49.4021 28.742 49.5103 29.1329C49.844 29.9796 50.9008 30.126 51.7629 30.1031C51.8583 30.0967 51.9531 30.1226 52.0318 30.1764C53.3272 31.0604 54.5656 32.0234 55.7398 33.0596C57.5011 34.5744 58.0573 35.3067 58.1963 35.6042C58.7943 36.1625 63.6054 40.6384 65.7097 41.9518C65.8015 42.0102 65.8695 42.0986 65.9017 42.2016C65.934 42.3046 65.9283 42.4155 65.8859 42.5147C65.5243 43.366 64.8244 45.8007 65.909 46.8625C66.9731 47.8289 68.1776 48.6326 69.4827 49.2469C69.5564 49.2801 69.62 49.3318 69.6672 49.3968C69.7143 49.4618 69.7434 49.538 69.7515 49.6176L71.0957 62.7889Z" fill="#093F68"/>
<path d="M54.2195 41.9153L47.3503 34.8628L61.7421 21.426L68.6066 28.4785L54.2195 41.9153Z" fill="#FFBC0E"/>
<path d="M54.2195 42.3729C54.1574 42.3732 54.0958 42.3613 54.0385 42.3377C53.9812 42.3141 53.9292 42.2794 53.8858 42.2356L47.0166 35.1831C46.9341 35.0926 46.8879 34.9754 46.8868 34.8536C46.8889 34.7932 46.9031 34.7338 46.9285 34.6788C46.954 34.6238 46.9902 34.5743 47.0352 34.5333L61.4038 21.0919C61.4906 21.0067 61.6081 20.9588 61.7305 20.9588C61.853 20.9588 61.9705 21.0067 62.0573 21.0919L68.9403 28.1444C69.0254 28.2315 69.0721 28.3483 69.0701 28.4693C69.0693 28.5302 69.0561 28.5903 69.0314 28.6461C69.0068 28.7019 68.9711 28.7523 68.9264 28.7943L54.5347 42.231C54.4521 42.3168 54.3392 42.3676 54.2195 42.3729ZM48.0085 34.8811L54.2334 41.2882L67.9484 28.4739L61.7236 22.0667L48.0085 34.8811Z" fill="#093F68"/>
<path d="M54.2148 41.9152L47.0027 44.9861L41.2506 47.4391L43.9575 41.8603L47.3503 34.8673L54.2148 41.9152Z" fill="white"/>
<path d="M41.2507 47.8922C41.1885 47.8926 41.127 47.8806 41.0697 47.8571C41.0123 47.8335 40.9604 47.7988 40.9169 47.755C40.8511 47.6875 40.8078 47.6018 40.7929 47.5093C40.778 47.4169 40.7921 47.3221 40.8335 47.2378L46.9193 34.666C46.9518 34.5996 47 34.5419 47.0599 34.4979C47.1198 34.4538 47.1896 34.4247 47.2633 34.413C47.337 34.4014 47.4125 34.4074 47.4834 34.4308C47.5542 34.4541 47.6183 34.494 47.6702 34.547L54.5347 41.5995C54.5865 41.6526 54.6245 41.7174 54.6456 41.7882C54.6666 41.859 54.67 41.9338 54.6554 42.0061C54.6408 42.0785 54.6088 42.1463 54.5619 42.2038C54.5151 42.2613 54.4548 42.3068 54.3863 42.3363L41.4082 47.8556C41.3583 47.8769 41.305 47.8893 41.2507 47.8922ZM47.4801 35.6591L42.2008 46.533L53.4083 41.7597L47.4801 35.6591Z" fill="#093F68"/>
<path d="M87.0726 19.6411C88.4131 18.3703 89.4156 16.7927 89.9911 15.0479C90.5666 13.3032 90.6974 11.4453 90.3719 9.6387C90.0465 7.83212 89.2748 6.13268 88.1253 4.69091C86.9758 3.24915 85.4839 2.10956 83.7817 1.3731C82.0796 0.636646 80.2198 0.32605 78.3671 0.46883C76.5143 0.611609 74.7258 1.20336 73.16 2.19165C71.5942 3.17995 70.2995 4.53429 69.3904 6.1347C68.4813 7.73511 67.9861 9.53218 67.9484 11.3667C67.8828 13.4056 67.2406 15.3857 66.0944 17.0829L65.8766 17.4124L72.8291 24.5564L73.2417 24.3138C75.0701 23.2646 77.1526 22.7252 79.2672 22.7532C82.1788 22.7519 84.9765 21.6364 87.0726 19.6411Z" fill="#68E1FD"/>
<path d="M72.8338 25.014C72.7706 25.0144 72.7079 25.002 72.6497 24.9776C72.5915 24.9532 72.539 24.9173 72.4954 24.8721L65.5429 17.7327C65.4706 17.6577 65.4263 17.5608 65.417 17.4578C65.4078 17.3547 65.4342 17.2516 65.4919 17.1652L65.7051 16.8357C66.8068 15.2054 67.4234 13.3028 67.4849 11.3439C67.5293 9.43803 68.0483 7.57232 68.996 5.91147C69.9437 4.25061 71.2909 2.8457 72.9189 1.8208C74.5468 0.795901 76.4052 0.182543 78.3301 0.034885C80.255 -0.112773 82.1871 0.209811 83.9558 0.974156C85.7245 1.7385 87.2753 2.92109 88.4715 4.41749C89.6676 5.9139 90.4721 7.67809 90.8141 9.55427C91.156 11.4304 91.0249 13.3609 90.4322 15.1752C89.8395 16.9894 88.8034 18.6317 87.4156 19.9569C85.2312 22.0361 82.3152 23.1977 79.2811 23.1971C77.253 23.1722 75.2559 23.6893 73.5012 24.6937L73.0887 24.9362C73.0126 24.9849 72.9244 25.0118 72.8338 25.014ZM66.4652 17.3574L72.9126 23.9751L73.0099 23.9202C74.9079 22.8326 77.0682 22.2713 79.2626 22.2955C82.0565 22.2963 84.7417 21.2266 86.7528 19.3116C88.853 17.4013 90.1047 14.7496 90.2358 11.933C90.3668 9.11641 89.3667 6.36258 87.4527 4.27012C85.5387 2.17766 82.8656 0.915703 80.0144 0.758572C77.1633 0.60144 74.3645 1.56183 72.2266 3.43099C71.0604 4.41274 70.1177 5.6269 69.4602 6.99377C68.8028 8.36065 68.4456 9.84934 68.4119 11.3622C68.3425 13.4839 67.6747 15.5443 66.4838 17.3117L66.4652 17.3574Z" fill="#093F68"/>
<path d="M72.6106 24.3269L66.0995 17.6392C65.7003 17.2292 65.0401 17.2164 64.6249 17.6105L64.4578 17.7691C64.0426 18.1632 64.0296 18.8151 64.4287 19.2251L70.9398 25.9127C71.339 26.3227 71.9992 26.3356 72.4144 25.9415L72.5815 25.7829C72.9967 25.3888 73.0097 24.7369 72.6106 24.3269Z" fill="white"/>
<path d="M71.6936 26.689H71.6611C71.463 26.6858 71.2675 26.6437 71.0861 26.5651C70.9047 26.4866 70.7409 26.3731 70.6043 26.2314L64.0921 19.545C63.8157 19.26 63.6648 18.8785 63.6727 18.4839C63.6805 18.0894 63.8463 17.7139 64.1338 17.4398L64.3053 17.2796C64.5932 17.007 64.9788 16.8582 65.3777 16.8659C65.7765 16.8736 66.156 17.0372 66.4328 17.3208L72.9218 24.0118C73.198 24.296 73.3487 24.6768 73.3409 25.0706C73.3331 25.4644 73.1674 25.8391 72.8801 26.1124L72.7133 26.2771C72.4382 26.5366 72.0739 26.6838 71.6936 26.689ZM65.3482 17.7831C65.1985 17.782 65.0542 17.8377 64.9449 17.9387L64.7781 18.0988C64.6702 18.2068 64.6098 18.3523 64.6098 18.5039C64.6098 18.6555 64.6702 18.801 64.7781 18.9089L71.2903 25.5998C71.3434 25.6539 71.4067 25.6971 71.4767 25.7269C71.5467 25.7568 71.622 25.7727 71.6982 25.7737C71.8517 25.7759 71.9999 25.7184 72.1107 25.6135L72.2776 25.4534C72.3315 25.4002 72.3743 25.3371 72.4035 25.2676C72.4327 25.1981 72.4478 25.1236 72.4478 25.0483C72.4478 24.9731 72.4327 24.8986 72.4035 24.8291C72.3743 24.7596 72.3315 24.6965 72.2776 24.6433L65.7885 17.957C65.7314 17.8994 65.6627 17.8542 65.5869 17.8243C65.5111 17.7944 65.4298 17.7803 65.3482 17.7831Z" fill="#093F68"/>
<path d="M70.9423 25.9161L64.4312 19.2285C64.032 18.8185 63.3718 18.8056 62.9566 19.1997L62.7895 19.3583C62.3743 19.7524 62.3613 20.4043 62.7605 20.8143L69.2716 27.502C69.6707 27.912 70.3309 27.9248 70.7461 27.5307L70.9132 27.3721C71.3284 26.978 71.3415 26.3261 70.9423 25.9161Z" fill="white"/>
<path d="M70.0203 28.2771C69.8168 28.2779 69.6152 28.2378 69.4279 28.1591C69.2407 28.0804 69.0716 27.9648 68.9311 27.8194L62.4189 21.1331C62.1435 20.8475 61.9935 20.4662 62.0013 20.072C62.0091 19.6778 62.1742 19.3026 62.4606 19.0279L62.6321 18.8677C62.7717 18.7293 62.9391 18.6212 63.1234 18.5503C63.3078 18.4794 63.5051 18.4472 63.7028 18.4558C63.9009 18.4588 64.0964 18.5008 64.2779 18.5793C64.4594 18.6579 64.6231 18.7715 64.7595 18.9135L71.2718 25.6044C71.4091 25.7448 71.5169 25.9107 71.5892 26.0924C71.6614 26.2741 71.6966 26.4681 71.6927 26.6633C71.6889 26.8584 71.646 27.0509 71.5666 27.2297C71.4872 27.4085 71.3728 27.57 71.2301 27.705L71.0632 27.8652C70.7831 28.1313 70.409 28.2791 70.0203 28.2771ZM69.5985 27.1879C69.7068 27.2954 69.8529 27.3577 70.0064 27.3618C70.0825 27.3639 70.1583 27.3508 70.2292 27.3233C70.3001 27.2957 70.3646 27.2544 70.4189 27.2016L70.5904 27.0414C70.6983 26.9335 70.7587 26.788 70.7587 26.6364C70.7587 26.4848 70.6983 26.3393 70.5904 26.2314L64.0782 19.545C64.0247 19.4912 63.9609 19.4484 63.8904 19.4192C63.82 19.3901 63.7444 19.375 63.668 19.375C63.5916 19.375 63.516 19.3901 63.4456 19.4192C63.3751 19.4484 63.3113 19.4912 63.2578 19.545L63.0909 19.7052C62.9842 19.8137 62.9245 19.959 62.9245 20.1102C62.9245 20.2615 62.9842 20.4068 63.0909 20.5153L69.5985 27.1879Z" fill="#093F68"/>
<path d="M69.2675 27.5007L62.7564 20.813C62.3572 20.403 61.697 20.3901 61.2818 20.7843L61.1147 20.9429C60.6995 21.337 60.6865 21.9888 61.0856 22.3988L67.5968 29.0865C67.9959 29.4965 68.6561 29.5094 69.0713 29.1152L69.2384 28.9566C69.6536 28.5625 69.6666 27.9107 69.2675 27.5007Z" fill="white"/>
<path d="M68.3471 29.8652C68.1437 29.8652 67.9423 29.8247 67.7552 29.746C67.568 29.6674 67.3988 29.5522 67.2578 29.4075L60.7688 22.7212C60.4923 22.4361 60.3415 22.0546 60.3493 21.66C60.3572 21.2655 60.523 20.8901 60.8105 20.6159L60.982 20.4558C61.2699 20.1831 61.6555 20.0343 62.0544 20.042C62.4532 20.0497 62.8326 20.2133 63.1095 20.4969L69.6217 27.1879C69.7596 27.328 69.8679 27.4938 69.9405 27.6755C70.0131 27.8573 70.0485 28.0514 70.0446 28.2468C70.0407 28.4421 69.9977 28.6348 69.9179 28.8136C69.8382 28.9924 69.7233 29.1538 69.58 29.2885L69.4131 29.4487C69.272 29.5841 69.1052 29.6905 68.9222 29.762C68.7392 29.8335 68.5438 29.8685 68.3471 29.8652ZM67.9299 28.7714C67.9833 28.8245 68.0469 28.8667 68.1169 28.8954C68.1869 28.9242 68.262 28.939 68.3378 28.939C68.4136 28.939 68.4887 28.9242 68.5587 28.8954C68.6287 28.8667 68.6922 28.8245 68.7457 28.7714L68.9172 28.6112C69.025 28.5033 69.0855 28.3578 69.0855 28.2062C69.0855 28.0545 69.025 27.909 68.9172 27.8011L62.4049 21.1148C62.2957 21.0083 62.1483 20.9486 61.9947 20.9486C61.8412 20.9486 61.6938 21.0083 61.5845 21.1148L61.4177 21.275C61.3637 21.3281 61.3209 21.3912 61.2917 21.4607C61.2625 21.5302 61.2475 21.6047 61.2475 21.68C61.2475 21.7552 61.2625 21.8297 61.2917 21.8992C61.3209 21.9687 61.3637 22.0319 61.4177 22.085L67.9299 28.7714Z" fill="#093F68"/>
<path d="M70.4514 22.1537C70.3587 22.1542 70.2681 22.1274 70.191 22.0765C70.114 22.0257 70.0542 21.9533 70.0193 21.8685C69.9843 21.7838 69.9759 21.6907 69.9951 21.6012C70.0143 21.5117 70.0602 21.43 70.1269 21.3665C71.6287 19.9112 73.1721 18.4741 74.762 17.0142C74.2887 16.6365 73.8426 16.2267 73.4271 15.7877C72.1332 17.4205 70.7547 18.9862 69.2973 20.4787C69.2103 20.5559 69.0969 20.5978 68.98 20.596C68.863 20.5941 68.7511 20.5487 68.6666 20.4688C68.5822 20.3889 68.5314 20.2804 68.5246 20.1651C68.5178 20.0498 68.5554 19.9362 68.6298 19.8471C70.1056 18.3322 71.4981 16.7404 72.8013 15.0783L72.7504 15.0188C71.0215 12.8129 70.7527 10.7535 71.9763 8.71234C72.3548 7.98522 72.931 7.37665 73.6403 6.95494C73.9059 6.8176 74.1973 6.73575 74.4963 6.71449C74.7954 6.69323 75.0956 6.73302 75.3784 6.83137C75.6988 6.94359 75.9928 7.1186 76.243 7.34589C76.4931 7.57318 76.694 7.84806 76.8338 8.154C77.3993 9.38509 76.7828 10.7306 76.2683 11.6322C75.5837 12.8171 74.8252 13.9588 73.9972 15.0509C74.4404 15.5325 74.9225 15.9779 75.4387 16.3826C77.4317 14.552 79.689 13.4536 81.7794 13.3209C82.2613 13.2726 82.7479 13.3402 83.1977 13.5177C83.6256 13.7175 83.988 14.0319 84.2437 14.4251C84.4994 14.8184 84.638 15.2746 84.6439 15.7419C84.6416 16.184 84.5488 16.6211 84.3712 17.0269C84.1936 17.4327 83.9348 17.7988 83.6102 18.1034C83.1663 18.518 82.6437 18.8418 82.0726 19.0562C81.5015 19.2706 80.893 19.3714 80.2823 19.3528C78.6508 19.3254 76.9543 18.5885 75.4989 17.5771C73.8813 19.0645 72.3008 20.5336 70.7712 22.021C70.686 22.1044 70.5714 22.152 70.4514 22.1537ZM76.1988 16.9318C77.397 17.8051 78.8204 18.327 80.3055 18.4375C80.7921 18.4551 81.2774 18.3773 81.7333 18.2083C82.1892 18.0394 82.6066 17.7829 82.9613 17.4536C83.1938 17.2397 83.3807 16.9822 83.5112 16.6962C83.6417 16.4101 83.7132 16.1013 83.7215 15.7877C83.7195 15.4957 83.6357 15.2099 83.4795 14.9619C83.3232 14.714 83.1006 14.5135 82.8362 14.3827C82.5202 14.2643 82.1802 14.2219 81.8443 14.2591C80.0088 14.3507 78.0111 15.33 76.1988 16.9318ZM74.6507 7.62312C74.4467 7.62311 74.246 7.67345 74.0667 7.76957C73.5148 8.11566 73.0679 8.60272 72.7735 9.17914C71.7631 10.8633 71.9485 12.4514 73.3807 14.3232C74.1377 13.319 74.8327 12.2706 75.4618 11.1837C75.9253 10.3919 76.3889 9.35305 75.9902 8.53385C75.9022 8.33894 75.7744 8.16401 75.6149 8.01993C75.4555 7.87585 75.2677 7.7657 75.0632 7.69634C74.9309 7.64929 74.7914 7.62454 74.6507 7.62312Z" fill="#093F68"/>
<path d="M47.0027 44.9907L41.2506 47.4391L43.9575 41.8603L47.0027 44.9907Z" fill="#093F68"/>
<path d="M41.2507 47.8968C41.1882 47.8965 41.1265 47.8838 41.0691 47.8595C41.0118 47.8351 40.96 47.7995 40.9169 47.7549C40.8521 47.6879 40.8094 47.603 40.7945 47.5114C40.7796 47.4199 40.7932 47.326 40.8335 47.2423L43.5404 41.6635C43.5723 41.5966 43.6202 41.5383 43.6799 41.4937C43.7397 41.4491 43.8095 41.4194 43.8834 41.4072C43.9575 41.3958 44.0334 41.4023 44.1044 41.4262C44.1755 41.4501 44.2396 41.4907 44.2912 41.5445L47.3365 44.6703C47.3883 44.7235 47.4263 44.7882 47.4474 44.859C47.4684 44.9298 47.4718 45.0046 47.4572 45.077C47.4426 45.1493 47.4105 45.2172 47.3637 45.2746C47.3168 45.3321 47.2566 45.3776 47.1881 45.4071L41.4361 47.8602C41.3771 47.8837 41.3142 47.8961 41.2507 47.8968ZM44.0873 42.652L42.2055 46.533L46.2055 44.8305L44.0873 42.652Z" fill="#093F68"/>
<path d="M49.4778 37.508C49.385 37.5077 49.2944 37.4799 49.2178 37.4281C49.1411 37.3764 49.082 37.3031 49.0481 37.2178C49.0141 37.1325 49.0069 37.0391 49.0273 36.9496C49.0477 36.8602 49.0949 36.7789 49.1627 36.7163L62.7155 24.0713C62.8023 23.986 62.9198 23.9382 63.0423 23.9382C63.1647 23.9382 63.2822 23.986 63.369 24.0713C63.4125 24.1138 63.447 24.1644 63.4705 24.2202C63.494 24.276 63.5061 24.3358 63.5061 24.3962C63.5061 24.4566 63.494 24.5164 63.4705 24.5722C63.447 24.628 63.4125 24.6786 63.369 24.7211L49.8162 37.3661C49.7726 37.4113 49.7201 37.4472 49.6619 37.4716C49.6037 37.496 49.5411 37.5084 49.4778 37.508Z" fill="#093F68"/>
<path d="M52.0874 40.1899C52.0246 40.1891 51.9626 40.1756 51.9053 40.1505C51.8479 40.1253 51.7963 40.0889 51.7536 40.0434C51.6673 39.9577 51.6188 39.8417 51.6188 39.7208C51.6188 39.5999 51.6673 39.4839 51.7536 39.3981L65.325 26.7714C65.4119 26.6862 65.5293 26.6383 65.6518 26.6383C65.7742 26.6383 65.8917 26.6862 65.9786 26.7714C66.022 26.814 66.0565 26.8646 66.08 26.9204C66.1035 26.9761 66.1157 27.0359 66.1157 27.0964C66.1157 27.1568 66.1035 27.2166 66.08 27.2724C66.0565 27.3281 66.022 27.3787 65.9786 27.4213L52.4072 40.0434C52.3243 40.1319 52.2093 40.1846 52.0874 40.1899Z" fill="#093F68"/>
<path d="M67.1651 33.0596C67.1651 33.0596 53.4454 28.1764 52.1198 29.2748C50.7942 30.3732 50.5161 31.682 52.8846 34.309C55.2531 36.9359 61.3852 39.5858 61.3852 39.5858C61.3852 39.5858 58.9333 47.1325 69.3065 49.6542" fill="#FFC9B0"/>
<path d="M69.3065 50.1118H69.1953C65.4872 49.1965 62.9472 47.581 61.6355 45.2653C60.7152 43.6154 60.4273 41.6935 60.8244 39.8512C59.4571 39.2288 54.6227 36.9222 52.523 34.6019C51.1603 33.1008 50.5624 31.9246 50.6366 30.8949C50.68 30.5041 50.8065 30.1269 51.0078 29.7878C51.209 29.4486 51.4806 29.1553 51.8046 28.927C53.1951 27.7828 63.1048 31.1329 67.3042 32.6294C67.4197 32.6707 67.5139 32.7556 67.566 32.8655C67.6182 32.9753 67.624 33.1011 67.5823 33.2152C67.5404 33.3282 67.4552 33.4203 67.345 33.4717C67.2348 33.5231 67.1086 33.5296 66.9936 33.4898C60.639 31.229 53.2554 29.11 52.3933 29.6317C52.169 29.7842 51.9792 29.9808 51.8356 30.2092C51.692 30.4376 51.5978 30.6929 51.559 30.9589C51.508 31.7141 52.0225 32.7072 53.2137 33.9932C55.4895 36.5012 61.4965 39.151 61.5567 39.1739C61.6607 39.2202 61.7438 39.3028 61.79 39.4058C61.8361 39.5088 61.8422 39.625 61.807 39.7322C61.3623 41.4476 61.5856 43.2653 62.4328 44.8259C63.6193 46.9037 65.96 48.3819 69.3853 49.2194C69.5082 49.234 69.6203 49.2962 69.6968 49.3923C69.7733 49.4884 69.8079 49.6106 69.7932 49.732C69.7784 49.8534 69.7155 49.964 69.6181 50.0395C69.5207 50.115 69.397 50.1493 69.2741 50.1347L69.3065 50.1118Z" fill="#093F68"/>
<path d="M36.319 20.1354H21.0883C20.9653 20.1354 20.8474 20.0872 20.7605 20.0014C20.6736 19.9155 20.6248 19.7991 20.6248 19.6777V15.7877C20.6248 15.6663 20.6736 15.5499 20.7605 15.4641C20.8474 15.3782 20.9653 15.33 21.0883 15.33H36.319C36.4419 15.33 36.5598 15.3782 36.6467 15.4641C36.7337 15.5499 36.7825 15.6663 36.7825 15.7877V19.6732C36.7831 19.7337 36.7716 19.7937 36.7485 19.8497C36.7255 19.9058 36.6915 19.9568 36.6484 19.9997C36.6053 20.0427 36.554 20.0768 36.4974 20.1001C36.4409 20.1234 36.3802 20.1354 36.319 20.1354ZM21.5518 19.2201H35.8555V16.2453H21.5518V19.2201Z" fill="#DFEAEF"/>
<path d="M31.3826 50.7389C31.369 50.4074 31.2455 50.0895 31.0311 49.834C30.8168 49.5785 30.5234 49.3996 30.1961 49.3247C29.6213 49.2011 29.042 49.1096 28.4626 49.0227C28.3818 49.0175 28.3046 48.9873 28.2422 48.9364C28.1798 48.8854 28.1353 48.8163 28.1149 48.7389C27.9435 48.2813 27.7534 47.8236 27.5495 47.3888C27.5178 47.3363 27.5039 47.2752 27.5097 47.2143C27.5156 47.1534 27.5408 47.0959 27.5819 47.0502C27.9295 46.5925 28.2864 46.1028 28.6109 45.6086C28.796 45.3315 28.8832 45.0017 28.8588 44.6707C28.8345 44.3396 28.7001 44.0258 28.4765 43.7779C27.9435 43.2013 27.378 42.6612 26.8218 42.1075C26.5466 41.8018 26.1637 41.6112 25.7512 41.5747C25.3386 41.5381 24.9275 41.6583 24.6016 41.9107C24.1659 42.2082 23.7348 42.5102 23.3084 42.826C23.2615 42.867 23.2028 42.8926 23.1405 42.8992C23.0782 42.9058 23.0154 42.893 22.9608 42.8626C22.4695 42.6475 21.9735 42.4462 21.4729 42.2539C21.4126 42.238 21.3587 42.2038 21.3188 42.1563C21.279 42.1087 21.2551 42.0501 21.2505 41.9885C21.167 41.4668 21.079 40.945 20.9863 40.4187C20.937 40.0474 20.7556 39.7055 20.4746 39.454C20.1936 39.2025 19.8312 39.0578 19.4521 39.0458C18.6363 39.0458 17.8205 39.0458 17.0001 39.0458C16.6524 39.0521 16.317 39.1738 16.048 39.3914C15.7789 39.6089 15.5918 39.9095 15.5169 40.2448C15.3871 40.8306 15.2944 41.4256 15.1971 42.016C15.1925 42.0775 15.1686 42.1362 15.1288 42.1837C15.0889 42.2313 15.035 42.2654 14.9746 42.2814C14.5111 42.469 14.0198 42.6704 13.5517 42.8764C13.5013 42.9078 13.4419 42.9222 13.3825 42.9172C13.323 42.9123 13.2669 42.8883 13.2226 42.8489C12.7591 42.5057 12.2956 42.1578 11.7904 41.842C11.509 41.6518 11.1712 41.5601 10.831 41.5817C10.4907 41.6033 10.1675 41.7368 9.91317 41.961C9.29207 42.524 8.68488 43.1098 8.11477 43.7184C7.84331 43.9895 7.68239 44.3497 7.66273 44.7304C7.64307 45.1111 7.76604 45.4856 8.00817 45.7825C8.32799 46.2401 8.65708 46.6978 8.97226 47.1554C8.99373 47.1917 9.00729 47.232 9.01208 47.2738C9.01687 47.3156 9.01278 47.3579 9.00007 47.398C8.80076 47.906 8.59682 48.4094 8.37897 48.9082C8.36073 48.9463 8.33426 48.98 8.30142 49.0069C8.26859 49.0337 8.2302 49.0532 8.18894 49.0639C7.66054 49.16 7.12751 49.2469 6.59912 49.3293C6.22465 49.3714 5.87705 49.542 5.61698 49.8113C5.35691 50.0807 5.2009 50.4316 5.17616 50.8029C5.14835 51.645 5.17616 52.4871 5.17616 53.3292C5.1915 53.6573 5.31472 53.9715 5.52717 54.2242C5.73961 54.4769 6.0297 54.6543 6.35346 54.7296C6.96065 54.8669 7.57711 54.9585 8.20747 55.0591C8.2666 55.0645 8.32268 55.0875 8.36823 55.1251C8.41378 55.1627 8.44663 55.2131 8.4624 55.2697C8.65244 55.7273 8.86102 56.2216 9.07423 56.693C9.10206 56.7399 9.11434 56.7942 9.10935 56.8484C9.10436 56.9026 9.08236 56.9538 9.04641 56.995C8.72196 57.4298 8.40214 57.8646 8.0916 58.3085C7.84928 58.6217 7.734 59.013 7.76829 59.4057C7.80258 59.7984 7.98397 60.1643 8.277 60.432C8.78686 60.9476 9.30443 61.4572 9.82973 61.9606C10.1061 62.2603 10.4881 62.4443 10.8974 62.4749C11.3067 62.5055 11.7124 62.3805 12.0314 62.1253C12.4949 61.8187 12.9213 61.5075 13.3616 61.21C13.4013 61.1774 13.4502 61.1577 13.5017 61.1536C13.5531 61.1495 13.6046 61.1612 13.649 61.1871C14.1125 61.3794 14.576 61.5716 15.0395 61.7409C15.1095 61.761 15.1713 61.8023 15.2162 61.859C15.2611 61.9156 15.2869 61.9848 15.2898 62.0567C15.3732 62.5738 15.4567 63.091 15.5494 63.6081C15.5938 63.9694 15.7643 64.3042 16.0316 64.5547C16.2989 64.8053 16.6463 64.9561 17.014 64.9811C17.8715 65.0086 18.7336 65.004 19.5911 64.9811C19.9275 64.9644 20.249 64.8395 20.5068 64.6255C20.7645 64.4114 20.9443 64.1201 21.0187 63.7958C21.1485 63.2237 21.2366 62.6425 21.3293 62.0658C21.3346 61.9969 21.361 61.9312 21.4048 61.8773C21.4486 61.8234 21.5079 61.7839 21.5749 61.7638C22.0384 61.5807 22.5297 61.3839 23.0025 61.1826C23.0509 61.1554 23.1066 61.1434 23.1621 61.1483C23.2176 61.1532 23.2703 61.1748 23.3131 61.21C23.7488 61.5304 24.1983 61.837 24.6387 62.1253C24.9474 62.3509 25.3257 62.4641 25.7094 62.4457C26.0641 62.446 26.405 62.3097 26.6595 62.0658C27.225 61.5395 27.7673 60.9949 28.3143 60.4549C28.6321 60.1814 28.8303 59.7971 28.8675 59.3824C28.9047 58.9678 28.7778 58.555 28.5136 58.2307C28.2123 57.8051 27.9064 57.3749 27.5866 56.9538C27.5508 56.9116 27.529 56.8596 27.5241 56.8048C27.5191 56.75 27.5312 56.695 27.5587 56.6472C27.7689 56.1773 27.9682 55.7014 28.1567 55.2193C28.1751 55.1605 28.2111 55.1085 28.2598 55.0702C28.3086 55.0318 28.3679 55.0088 28.4301 55.0042L30.0199 54.7479C30.3937 54.6997 30.7383 54.5226 30.9927 54.248C31.2471 53.9733 31.3951 53.6187 31.4105 53.2468C31.4058 52.4002 31.4012 51.5672 31.3826 50.7389ZM18.2701 57.5808C17.1508 57.579 16.0572 57.2495 15.1275 56.634C14.1979 56.0185 13.4739 55.1446 13.0473 54.1228C12.6206 53.1011 12.5104 51.9773 12.7306 50.8937C12.9508 49.8101 13.4914 48.8153 14.2842 48.0351C15.077 47.2549 16.0862 46.7243 17.1844 46.5105C18.2826 46.2966 19.4203 46.4091 20.4537 46.8337C21.4871 47.2584 22.3698 47.976 22.9902 48.896C23.6105 49.8159 23.9406 50.8968 23.9388 52.002C23.9376 52.7358 23.79 53.4622 23.5044 54.1397C23.2189 54.8172 22.801 55.4326 22.2746 55.9506C21.7483 56.4687 21.1237 56.8793 20.4366 57.159C19.7495 57.4387 19.0133 57.582 18.2701 57.5808Z" fill="#68E1FD" stroke="#093F68" stroke-width="2" stroke-linecap="round" stroke-linejoin="round"/>
<path d="M20.9075 27.4533C20.8976 27.2008 20.8036 26.9586 20.6403 26.7642C20.4769 26.5698 20.2531 26.434 20.0036 26.3778C19.5679 26.2817 19.1276 26.213 18.6919 26.149C18.6308 26.1445 18.5725 26.1214 18.5252 26.0829C18.4779 26.0443 18.4438 25.9923 18.4277 25.9339C18.2979 25.5861 18.1496 25.2474 18.0013 24.9087C17.9744 24.8704 17.96 24.8249 17.96 24.7783C17.96 24.7317 17.9744 24.6862 18.0013 24.6479C18.2701 24.2909 18.539 23.9339 18.7846 23.5586C18.9208 23.3499 18.9846 23.103 18.9662 22.8553C18.9478 22.6076 18.8483 22.3726 18.6827 22.1857C18.2794 21.728 17.8483 21.339 17.4266 20.9225C17.2189 20.6899 16.9292 20.5443 16.6165 20.5154C16.3039 20.4864 15.9918 20.5764 15.744 20.7669C15.415 20.9958 15.0859 21.2246 14.7614 21.458C14.7262 21.49 14.6815 21.51 14.6339 21.5149C14.5863 21.5199 14.5384 21.5095 14.4972 21.4855C14.1264 21.3253 13.751 21.1697 13.3709 21.0278C13.3248 21.0157 13.2836 20.9899 13.2529 20.9539C13.2222 20.9179 13.2035 20.8733 13.1994 20.8264C13.1392 20.4283 13.0696 20.0301 13.0001 19.6365C12.959 19.3575 12.8201 19.1016 12.6074 18.9134C12.3948 18.7253 12.1221 18.6167 11.8367 18.6068C11.2156 18.6068 10.5945 18.6068 9.9827 18.6068C9.71808 18.6122 9.46302 18.7054 9.25867 18.8715C9.05432 19.0375 8.9126 19.2668 8.85639 19.5221C8.75442 19.9798 8.68489 20.4374 8.61073 20.8676C8.60783 20.9148 8.59024 20.9599 8.56037 20.9967C8.53049 21.0336 8.4898 21.0604 8.44387 21.0736C8.0777 21.2109 7.7208 21.3665 7.3639 21.5312C7.32724 21.5566 7.28354 21.5703 7.23876 21.5703C7.19397 21.5703 7.15027 21.5566 7.11361 21.5312C6.75671 21.2704 6.39981 21.0049 6.02901 20.7624C5.81445 20.6192 5.55778 20.5505 5.29936 20.5671C5.04095 20.5836 4.79543 20.6845 4.60142 20.8539C4.13792 21.2795 3.67442 21.7234 3.23872 22.1903C3.03369 22.3952 2.91193 22.6672 2.89655 22.9549C2.88118 23.2425 2.97324 23.5258 3.15529 23.7509C3.40095 24.0987 3.65124 24.4328 3.89226 24.7806C3.91553 24.8394 3.91553 24.9048 3.89226 24.9636C3.74394 25.3481 3.58635 25.7279 3.42876 26.1078C3.41588 26.1373 3.39617 26.1635 3.37122 26.1841C3.34627 26.2048 3.31677 26.2194 3.28507 26.2268C2.88182 26.3 2.48321 26.3641 2.07996 26.4281C1.79592 26.4597 1.53215 26.5889 1.33474 26.793C1.13734 26.9971 1.01886 27.2632 1 27.5448C1 28.1855 1 28.8263 1 29.4624C1.01136 29.712 1.10484 29.9512 1.26628 30.1436C1.42771 30.336 1.64828 30.4713 1.89456 30.5287C2.35807 30.6294 2.82157 30.6981 3.28507 30.7759C3.32997 30.7804 3.37246 30.7981 3.40714 30.8267C3.44181 30.8552 3.46709 30.8933 3.47974 30.9361C3.62343 31.2976 3.78102 31.6591 3.94325 32.0161C3.96808 32.0492 3.98149 32.0893 3.98149 32.1305C3.98149 32.1717 3.96808 32.2118 3.94325 32.2449C3.69759 32.5745 3.45193 32.904 3.22018 33.2381C3.03637 33.4764 2.94882 33.7737 2.97451 34.0723C3.00021 34.3708 3.13732 34.6493 3.35923 34.8536C3.74857 35.2426 4.13792 35.6316 4.53653 36.0114C4.74634 36.2394 5.0364 36.3796 5.3474 36.4034C5.6584 36.4272 5.96688 36.3328 6.20978 36.1396C6.54814 35.9062 6.88649 35.6819 7.21558 35.4302C7.24796 35.4071 7.28688 35.3947 7.32682 35.3947C7.36676 35.3947 7.40569 35.4071 7.43807 35.4302C7.78106 35.5767 8.12405 35.7231 8.47631 35.8513C8.52986 35.8652 8.57738 35.8959 8.61166 35.9389C8.64595 35.9818 8.66515 36.0346 8.66635 36.0893C8.7266 36.4828 8.79612 36.8764 8.86565 37.2654C8.90241 37.5374 9.03323 37.7884 9.23595 37.9761C9.43866 38.1637 9.70084 38.2765 9.97806 38.2951C10.627 38.2951 11.2805 38.2951 11.934 38.2951C12.191 38.2814 12.4362 38.1842 12.6315 38.0187C12.8268 37.8531 12.9613 37.6286 13.014 37.3798C13.1113 36.9496 13.1762 36.5057 13.2504 36.0664C13.2539 36.0141 13.2736 35.9641 13.3067 35.9232C13.3399 35.8823 13.3849 35.8524 13.4358 35.8375C13.802 35.7002 14.1589 35.5538 14.5204 35.3799C14.5564 35.3585 14.5984 35.3492 14.6401 35.3533C14.6819 35.3575 14.7212 35.3748 14.7521 35.4028L15.758 36.1167C15.995 36.2849 16.282 36.3703 16.5737 36.3593C16.8436 36.3555 17.102 36.2509 17.2968 36.0664C17.7232 35.6682 18.1357 35.2563 18.5482 34.849C18.7901 34.6417 18.9411 34.35 18.9696 34.0351C18.9981 33.7202 18.9019 33.4066 18.7012 33.1603C18.4694 32.8353 18.2377 32.5104 18.0013 32.19C17.9739 32.1581 17.9569 32.1186 17.9528 32.0769C17.9486 32.0352 17.9575 31.9932 17.9781 31.9566C18.1357 31.5997 18.2887 31.2381 18.4416 30.872C18.4555 30.827 18.4829 30.7871 18.5201 30.7577C18.5573 30.7283 18.6027 30.7107 18.6502 30.7072C19.0535 30.6477 19.4567 30.5837 19.8553 30.515C20.1393 30.4786 20.401 30.3442 20.5944 30.1357C20.7878 29.9272 20.9003 29.6579 20.9121 29.3754C20.9245 28.7225 20.9229 28.0818 20.9075 27.4533ZM10.9561 32.6431C10.1074 32.6413 9.27827 32.3911 8.57357 31.9241C7.86887 31.4572 7.3202 30.7944 6.9969 30.0196C6.6736 29.2448 6.5902 28.3928 6.75723 27.5712C6.92426 26.7496 7.33423 25.9953 7.93531 25.4037C8.5364 24.8122 9.30161 24.4098 10.1342 24.2475C10.9669 24.0853 11.8295 24.1704 12.6132 24.4921C13.3968 24.8138 14.0663 25.3577 14.5369 26.0551C15.0076 26.7524 15.2583 27.5718 15.2574 28.4098C15.2537 29.5338 14.7989 30.6105 13.9926 31.404C13.1864 32.1975 12.0944 32.6431 10.9561 32.6431Z" fill="#68E1FD" stroke="#093F68" stroke-width="2" stroke-linecap="round" stroke-linejoin="round"/>
</svg>
