<svg width="67" height="78" viewBox="0 0 67 78" fill="none" xmlns="http://www.w3.org/2000/svg">
<path d="M59.3376 5.87573H0.435562V77.1567H59.3376V5.87573Z" fill="#577CBE"/>
<path d="M59.3376 77.5906H0.435569C0.320049 77.5906 0.20926 77.5448 0.127575 77.4635C0.0458899 77.3821 0 77.2717 0 77.1566V5.87566C0 5.76057 0.0458899 5.65019 0.127575 5.56881C0.20926 5.48743 0.320049 5.44171 0.435569 5.44171H59.3376C59.4531 5.44171 59.5639 5.48743 59.6456 5.56881C59.7273 5.65019 59.7732 5.76057 59.7732 5.87566V77.1566C59.7732 77.2717 59.7273 77.3821 59.6456 77.4635C59.5639 77.5448 59.4531 77.5906 59.3376 77.5906ZM0.871138 76.7227H58.902V6.30962H0.871138V76.7227Z" fill="#093F68"/>
<path d="M66.4678 0.433899H7.56583V71.7149H66.4678V0.433899Z" fill="white"/>
<path d="M66.4678 72.1488H7.56583C7.45031 72.1488 7.33952 72.1031 7.25784 72.0217C7.17615 71.9404 7.13026 71.83 7.13026 71.7149V0.433952C7.13026 0.318861 7.17615 0.208485 7.25784 0.127103C7.33952 0.0457211 7.45031 0 7.56583 0H66.4678C66.5834 0 66.6941 0.0457211 66.7758 0.127103C66.8575 0.208485 66.9034 0.318861 66.9034 0.433952V71.7149C66.9034 71.83 66.8575 71.9404 66.7758 72.0217C66.6941 72.1031 66.5834 72.1488 66.4678 72.1488ZM8.0014 71.2809H66.0323V0.867904H8.0014V71.2809Z" fill="#093F68"/>
<path d="M39.0096 7.35986H13.3502V33.6747H39.0096V7.35986Z" fill="#577CBE"/>
<path d="M39.0052 34.1086H13.3502C13.2347 34.1086 13.1239 34.0629 13.0422 33.9815C12.9605 33.9001 12.9146 33.7897 12.9146 33.6746V7.35979C12.9146 7.2447 12.9605 7.13433 13.0422 7.05294C13.1239 6.97156 13.2347 6.92584 13.3502 6.92584H39.0052C39.1207 6.92584 39.2315 6.97156 39.3132 7.05294C39.3949 7.13433 39.4408 7.2447 39.4408 7.35979V33.6746C39.4408 33.7897 39.3949 33.9001 39.3132 33.9815C39.2315 34.0629 39.1207 34.1086 39.0052 34.1086ZM13.7858 33.2407H38.5696V7.79375H13.7858V33.2407Z" fill="#093F68"/>
<path d="M32.733 31.136V33.6746H19.6659V31.136C19.6659 29.9674 20.1316 28.8466 20.9606 28.0199C21.7895 27.1932 22.914 26.7282 24.087 26.7271H28.312C28.8929 26.7271 29.4682 26.8411 30.0048 27.0627C30.5415 27.2844 31.0291 27.6092 31.4397 28.0187C31.8503 28.4281 32.1758 28.9142 32.3977 29.4491C32.6197 29.984 32.7336 30.5572 32.733 31.136Z" fill="white"/>
<path d="M32.733 34.1086H19.6659C19.5504 34.1086 19.4396 34.0629 19.358 33.9815C19.2763 33.9001 19.2304 33.7898 19.2304 33.6747V31.1361C19.2315 29.8527 19.7434 28.6223 20.6538 27.7144C21.5643 26.8066 22.7989 26.2954 24.087 26.2932H28.312C29.5993 26.2966 30.8328 26.8082 31.7423 27.7159C32.6518 28.6237 33.1631 29.8535 33.1642 31.1361V33.6747C33.1642 33.789 33.1189 33.8987 33.0382 33.98C32.9575 34.0613 32.8478 34.1075 32.733 34.1086ZM20.1015 33.2407H32.2975V31.1361C32.2975 30.0833 31.8783 29.0736 31.1319 28.3284C30.3856 27.5832 29.373 27.1634 28.3163 27.1611H24.0913C23.0339 27.1622 22.0202 27.5815 21.2729 28.3268C20.5256 29.0722 20.1059 30.0826 20.1059 31.1361L20.1015 33.2407Z" fill="#093F68"/>
<path d="M25.1498 27.1611L26.3519 32.8892L27.3712 27.1611H25.1498Z" fill="#093F68"/>
<path d="M26.3519 33.3232C26.25 33.3252 26.1506 33.2916 26.071 33.2282C25.9915 33.1647 25.9367 33.0755 25.9164 32.976L24.7403 27.2522C24.7265 27.1881 24.7274 27.1217 24.743 27.058C24.7586 26.9944 24.7885 26.935 24.8304 26.8845C24.8723 26.834 24.9252 26.7936 24.985 26.7663C25.0449 26.739 25.1101 26.7256 25.1759 26.7271H27.3537C27.4177 26.727 27.481 26.7409 27.5389 26.7679C27.5969 26.7949 27.6482 26.8343 27.6891 26.8833C27.7303 26.932 27.7603 26.9891 27.7768 27.0506C27.7934 27.1121 27.7962 27.1765 27.785 27.2392L26.7614 32.963C26.7437 33.0649 26.6902 33.1571 26.6103 33.2232C26.5305 33.2892 26.4296 33.3247 26.3258 33.3232H26.3519ZM25.6855 27.595L26.3171 30.6023L26.8528 27.595H25.6855Z" fill="#093F68"/>
<path d="M25.6463 8.79188C25.92 8.74849 26.1967 8.72672 26.4739 8.72679C27.7501 8.72679 29.0525 8.69208 30.2198 9.26055C31.3989 9.84122 32.3925 10.7373 33.0894 11.8486C33.7864 12.9599 34.1591 14.2425 34.166 15.5529L33.896 20.7603H18.5857C18.5573 20.4348 18.5794 20.107 18.6511 19.7882C18.6415 19.4477 18.5903 19.1096 18.4986 18.7815C18.3132 17.9253 18.2111 17.0534 18.1937 16.1777C18.1974 14.8098 18.482 13.4571 19.03 12.2027C19.2887 11.4296 19.7576 10.743 20.3846 10.2196C21.0554 9.75092 22.1269 9.73356 22.5886 10.3975C23.4 9.53805 24.4761 8.97299 25.6463 8.79188Z" fill="#725858"/>
<path d="M33.8873 21.1986H18.5857C18.4885 21.2024 18.3928 21.1737 18.3139 21.1171C18.235 21.0605 18.1773 20.9792 18.1502 20.8861C18.0887 20.6118 18.0887 20.3273 18.1502 20.0529C18.1687 19.9612 18.1818 19.8685 18.1894 19.7752C18.1874 19.5463 18.1552 19.3187 18.0935 19.0982C18.0935 19.0245 18.0587 18.9464 18.0456 18.8682C17.8719 17.9992 17.78 17.1159 17.7712 16.2298C17.7731 14.8021 18.0696 13.39 18.6424 12.0812C18.9221 11.2234 19.4401 10.462 20.1364 9.88543C20.4903 9.62751 20.9142 9.48206 21.3525 9.46812C21.7909 9.45418 22.2232 9.57241 22.593 9.80732C23.4322 9.05079 24.4755 8.55593 25.594 8.38396C25.8814 8.33198 26.1732 8.30872 26.4652 8.31453H26.6917C27.933 8.31453 29.218 8.31453 30.4027 8.89168C31.6554 9.50774 32.711 10.4594 33.4512 11.6398C34.1913 12.8202 34.5867 14.1827 34.5929 15.5745C34.5929 15.5745 34.5929 15.5745 34.3228 20.808C34.312 20.9154 34.2614 21.015 34.1808 21.0872C34.1003 21.1594 33.9956 21.1991 33.8873 21.1986ZM19.0039 20.3307H33.4735C33.5345 19.1069 33.7174 15.5572 33.7218 15.5311C33.7132 14.3053 33.3623 13.106 32.7084 12.0675C32.0545 11.029 31.1235 10.1923 30.0194 9.6511C29.0133 9.16073 27.8851 9.16073 26.6917 9.16073H26.4826C26.2291 9.16458 25.976 9.18342 25.7247 9.21715C24.6471 9.38014 23.6559 9.89987 22.9109 10.6926C22.8669 10.7401 22.8128 10.7773 22.7525 10.8013C22.6922 10.8254 22.6273 10.8356 22.5625 10.8314C22.4979 10.8272 22.435 10.8086 22.3785 10.7771C22.322 10.7455 22.2732 10.7019 22.2358 10.6492C21.9091 10.2152 21.1207 10.2152 20.6373 10.5754C20.078 11.0578 19.6647 11.686 19.4438 12.3893C18.9174 13.5897 18.6446 14.8852 18.6424 16.1951C18.6615 17.0372 18.7606 17.8756 18.9385 18.699C18.9385 18.7684 18.969 18.8379 18.9821 18.9116C19.0631 19.2041 19.1027 19.5065 19.0997 19.8099C19.0997 19.9358 19.0692 20.0659 19.0474 20.2005C19.0257 20.2439 19.0213 20.2873 19.0126 20.3307H19.0039Z" fill="#093F68"/>
<path d="M25.1498 25.8895H27.3537V27.1653C27.3537 27.4151 27.2542 27.6546 27.0769 27.8312C26.8996 28.0078 26.6592 28.107 26.4086 28.107H26.0732C25.8225 28.107 25.5821 28.0078 25.4048 27.8312C25.2276 27.6546 25.128 27.4151 25.128 27.1653V25.8895H25.1498Z" fill="#FFC9B0"/>
<path d="M26.4303 28.5367H26.0949C25.7287 28.5367 25.3775 28.3918 25.1186 28.1338C24.8597 27.8758 24.7142 27.5259 24.7142 27.1611V25.8896C24.7142 25.7745 24.7601 25.6641 24.8418 25.5827C24.9235 25.5013 25.0342 25.4556 25.1498 25.4556H27.3537C27.4693 25.4556 27.58 25.5013 27.6617 25.5827C27.7434 25.6641 27.7893 25.7745 27.7893 25.8896V27.1611C27.7894 27.5222 27.6469 27.8688 27.3926 28.1262C27.1384 28.3835 26.7927 28.531 26.4303 28.5367ZM25.5853 26.3235V27.1611C25.5853 27.2957 25.639 27.4249 25.7346 27.5201C25.8302 27.6153 25.9598 27.6688 26.0949 27.6688H26.4303C26.4971 27.6688 26.5631 27.6556 26.6247 27.6301C26.6863 27.6045 26.7422 27.567 26.7892 27.5198C26.8361 27.4726 26.8733 27.4166 26.8984 27.355C26.9235 27.2935 26.9362 27.2275 26.9356 27.1611V26.3235H25.5853Z" fill="#093F68"/>
<path d="M20.2757 21.9884C21.3991 21.9884 22.3098 21.1588 22.3098 20.1354C22.3098 19.112 21.3991 18.2824 20.2757 18.2824C19.1523 18.2824 18.2416 19.112 18.2416 20.1354C18.2416 21.1588 19.1523 21.9884 20.2757 21.9884Z" fill="#FFC9B0"/>
<path d="M20.2757 22.4223C19.8294 22.3893 19.4024 22.2274 19.0472 21.9563C18.6919 21.6851 18.4237 21.3166 18.2755 20.8959C18.1273 20.4752 18.1056 20.0205 18.2129 19.5876C18.3203 19.1548 18.5521 18.7625 18.8799 18.459C19.2077 18.1554 19.6173 17.9538 20.0584 17.8787C20.4996 17.8036 20.9532 17.8585 21.3635 18.0364C21.7738 18.2144 22.1232 18.5077 22.3686 18.8806C22.6141 19.2534 22.745 19.6895 22.7454 20.1354C22.7205 20.7643 22.4467 21.3578 21.984 21.7863C21.5212 22.2148 20.9071 22.4434 20.2757 22.4223ZM20.2757 18.7163C20.0013 18.7481 19.7419 18.8583 19.5288 19.0336C19.3157 19.2089 19.1581 19.4418 19.0748 19.7043C18.9916 19.9669 18.9863 20.2477 19.0596 20.5132C19.1329 20.7786 19.2816 21.0173 19.4879 21.2004C19.6942 21.3836 19.9493 21.5034 20.2224 21.5454C20.4955 21.5875 20.7749 21.55 21.0271 21.4374C21.2793 21.3249 21.4934 21.1421 21.6437 20.9111C21.794 20.68 21.8741 20.4107 21.8743 20.1354C21.8485 19.737 21.6663 19.3648 21.3671 19.0992C21.068 18.8337 20.6759 18.6961 20.2757 18.7163Z" fill="#093F68"/>
<path d="M32.1319 21.9884C33.2553 21.9884 34.166 21.1588 34.166 20.1354C34.166 19.112 33.2553 18.2824 32.1319 18.2824C31.0085 18.2824 30.0978 19.112 30.0978 20.1354C30.0978 21.1588 31.0085 21.9884 32.1319 21.9884Z" fill="#FFC9B0"/>
<path d="M32.145 22.4223C31.6987 22.3893 31.2717 22.2274 30.9164 21.9563C30.5611 21.6851 30.293 21.3166 30.1448 20.8959C29.9966 20.4752 29.9749 20.0205 30.0822 19.5876C30.1896 19.1548 30.4214 18.7625 30.7492 18.459C31.077 18.1554 31.4866 17.9538 31.9277 17.8787C32.3689 17.8036 32.8224 17.8585 33.2328 18.0364C33.6431 18.2144 33.9924 18.5077 34.2379 18.8806C34.4834 19.2534 34.6143 19.6895 34.6147 20.1354C34.5908 20.7647 34.3175 21.3588 33.8545 21.7876C33.3915 22.2163 32.7767 22.4446 32.145 22.4223ZM32.145 18.7163C31.8705 18.7481 31.6111 18.8583 31.3981 19.0336C31.185 19.2089 31.0273 19.4418 30.9441 19.7043C30.8608 19.9669 30.8555 20.2477 30.9288 20.5132C31.0021 20.7786 31.1509 21.0173 31.3572 21.2004C31.5635 21.3836 31.8186 21.5034 32.0917 21.5454C32.3647 21.5875 32.6442 21.55 32.8964 21.4374C33.1486 21.3249 33.3627 21.1421 33.513 20.9111C33.6633 20.68 33.7434 20.4107 33.7435 20.1354C33.7188 19.7366 33.537 19.3637 33.2376 19.0979C32.9381 18.8321 32.5454 18.695 32.145 18.7163Z" fill="#093F68"/>
<path d="M26.2605 26.1803C25.4025 26.1803 24.5529 26.012 23.7602 25.6848C22.9675 25.3577 22.2472 24.8782 21.6405 24.2738C21.0338 23.6694 20.5526 22.9518 20.2243 22.162C19.8959 21.3723 19.7269 20.5259 19.7269 19.6711V16.1994C19.7269 16.1994 21.3647 15.2664 21.8525 13.7997C21.8525 13.7997 24.357 16.6377 26.7701 16.4424C28.777 16.2735 30.7734 15.9968 32.7504 15.6136V19.7014C32.7424 21.415 32.0565 23.0564 30.8415 24.2693C29.6265 25.4823 27.9804 26.1689 26.2605 26.1803Z" fill="#FFC9B0"/>
<path d="M26.2605 26.6142C24.4121 26.6142 22.6395 25.8827 21.3326 24.5806C20.0256 23.2785 19.2914 21.5125 19.2914 19.671V16.1994C19.2918 16.1237 19.3122 16.0494 19.3504 15.9839C19.3886 15.9184 19.4433 15.8641 19.5091 15.8262C19.5091 15.8262 21.0118 14.9583 21.4387 13.6564C21.4626 13.5838 21.5054 13.5188 21.5626 13.4679C21.6199 13.417 21.6896 13.3821 21.7647 13.3666C21.8399 13.3512 21.9178 13.3559 21.9906 13.3801C22.0633 13.4043 22.1284 13.4472 22.1792 13.5046C22.2053 13.5306 24.5661 16.1777 26.7352 16.0041C28.7246 15.8344 30.7034 15.5592 32.6633 15.1796C32.7273 15.1666 32.7935 15.1681 32.8568 15.1839C32.9202 15.1998 32.9792 15.2297 33.0294 15.2714C33.0796 15.3131 33.1197 15.3655 33.1468 15.4247C33.1739 15.4839 33.1873 15.5485 33.186 15.6136V19.7014C33.178 21.5301 32.4462 23.2818 31.1495 24.5761C29.8528 25.8704 28.096 26.6028 26.2605 26.6142ZM20.1625 16.4381V19.7014C20.0912 20.5394 20.1954 21.3831 20.4683 22.179C20.7413 22.9749 21.1772 23.7056 21.7484 24.3249C22.3196 24.9442 23.0136 25.4387 23.7865 25.7769C24.5595 26.1151 25.3945 26.2897 26.2387 26.2897C27.0829 26.2897 27.9179 26.1151 28.6908 25.7769C29.4637 25.4387 30.1578 24.9442 30.7289 24.3249C31.3001 23.7056 31.736 22.9749 32.009 22.179C32.282 21.3831 32.3861 20.5394 32.3149 19.7014V16.1343C31.3435 16.3122 29.1352 16.6854 26.8049 16.872C24.8231 17.0239 22.8587 15.3966 21.9875 14.5591C21.5327 15.3101 20.9169 15.9517 20.1843 16.4381H20.1625Z" fill="#093F68"/>
<path d="M26.2256 21.1985C26.0155 21.1984 25.8057 21.181 25.5984 21.1464C25.5412 21.1365 25.4865 21.1154 25.4375 21.0843C25.3885 21.0533 25.3461 21.013 25.3127 20.9656C25.2794 20.9183 25.2557 20.8649 25.243 20.8084C25.2304 20.7519 25.229 20.6935 25.2391 20.6365C25.2491 20.5796 25.2702 20.5251 25.3014 20.4763C25.3325 20.4274 25.373 20.3852 25.4205 20.3519C25.468 20.3187 25.5217 20.2951 25.5784 20.2825C25.635 20.2699 25.6936 20.2686 25.7508 20.2785C25.9409 20.3094 26.1333 20.3225 26.3258 20.3176C26.2189 19.9391 26.0729 19.5726 25.8902 19.224C25.8371 19.1216 25.827 19.0023 25.8621 18.8925C25.8972 18.7826 25.9747 18.6911 26.0775 18.6382C26.1803 18.5853 26.3 18.5752 26.4103 18.6102C26.5206 18.6452 26.6124 18.7224 26.6655 18.8248C27.1664 19.7838 27.3407 20.4521 27.1795 20.8036C27.1457 20.884 27.0934 20.9554 27.0268 21.0119C26.9603 21.0685 26.8813 21.1086 26.7962 21.1291C26.6096 21.1753 26.4179 21.1986 26.2256 21.1985Z" fill="#093F68"/>
<path d="M22.5189 34.1086C22.4034 34.1086 22.2926 34.0629 22.2109 33.9815C22.1292 33.9002 22.0833 33.7898 22.0833 33.6747V31.5049C22.0833 31.3898 22.1292 31.2795 22.2109 31.1981C22.2926 31.1167 22.4034 31.071 22.5189 31.071C22.6344 31.071 22.7452 31.1167 22.8269 31.1981C22.9086 31.2795 22.9545 31.3898 22.9545 31.5049V33.6747C22.9545 33.7898 22.9086 33.9002 22.8269 33.9815C22.7452 34.0629 22.6344 34.1086 22.5189 34.1086Z" fill="#093F68"/>
<path d="M29.8888 34.1086C29.7732 34.1086 29.6624 34.0629 29.5808 33.9815C29.4991 33.9002 29.4532 33.7898 29.4532 33.6747V31.5049C29.4532 31.3898 29.4991 31.2795 29.5808 31.1981C29.6624 31.1167 29.7732 31.071 29.8888 31.071C30.0043 31.071 30.1151 31.1167 30.1967 31.1981C30.2784 31.2795 30.3243 31.3898 30.3243 31.5049V33.6747C30.3243 33.7898 30.2784 33.9002 30.1967 33.9815C30.1151 34.0629 30.0043 34.1086 29.8888 34.1086Z" fill="#093F68"/>
<path d="M58.7147 12.4544H44.6458C44.5303 12.4544 44.4195 12.4087 44.3378 12.3273C44.2562 12.2459 44.2103 12.1355 44.2103 12.0204C44.2103 11.9053 44.2562 11.795 44.3378 11.7136C44.4195 11.6322 44.5303 11.5865 44.6458 11.5865H58.7147C58.8302 11.5865 58.941 11.6322 59.0227 11.7136C59.1044 11.795 59.1503 11.9053 59.1503 12.0204C59.1503 12.1355 59.1044 12.2459 59.0227 12.3273C58.941 12.4087 58.8302 12.4544 58.7147 12.4544Z" fill="#DFEAEF"/>
<path d="M58.7147 18.7164H44.6458C44.5303 18.7164 44.4195 18.6706 44.3378 18.5892C44.2562 18.5079 44.2103 18.3975 44.2103 18.2824C44.2103 18.1673 44.2562 18.0569 44.3378 17.9756C44.4195 17.8942 44.5303 17.8484 44.6458 17.8484H58.7147C58.8302 17.8484 58.941 17.8942 59.0227 17.9756C59.1044 18.0569 59.1503 18.1673 59.1503 18.2824C59.1503 18.3975 59.1044 18.5079 59.0227 18.5892C58.941 18.6706 58.8302 18.7164 58.7147 18.7164Z" fill="#DFEAEF"/>
<path d="M58.7147 24.9783H44.6458C44.5303 24.9783 44.4195 24.9326 44.3378 24.8512C44.2562 24.7698 44.2103 24.6595 44.2103 24.5444C44.2103 24.4293 44.2562 24.3189 44.3378 24.2375C44.4195 24.1561 44.5303 24.1104 44.6458 24.1104H58.7147C58.8302 24.1104 58.941 24.1561 59.0227 24.2375C59.1044 24.3189 59.1503 24.4293 59.1503 24.5444C59.1503 24.6595 59.1044 24.7698 59.0227 24.8512C58.941 24.9326 58.8302 24.9783 58.7147 24.9783Z" fill="#DFEAEF"/>
<path d="M53.8276 31.2402H44.6458C44.5303 31.2402 44.4195 31.1945 44.3378 31.1131C44.2562 31.0317 44.2103 30.9214 44.2103 30.8063C44.2103 30.6912 44.2562 30.5808 44.3378 30.4994C44.4195 30.418 44.5303 30.3723 44.6458 30.3723H53.8276C53.9431 30.3723 54.0539 30.418 54.1356 30.4994C54.2173 30.5808 54.2632 30.6912 54.2632 30.8063C54.2632 30.9214 54.2173 31.0317 54.1356 31.1131C54.0539 31.1945 53.9431 31.2402 53.8276 31.2402Z" fill="#DFEAEF"/>
<path d="M16.5473 39.9323C15.7205 39.9334 14.9279 40.2611 14.3433 40.8436C13.7587 41.426 13.4297 42.2156 13.4286 43.0393C13.4286 44.7535 16.5473 48.6807 16.5473 48.6807C16.5473 48.6807 19.6703 44.7535 19.6703 43.0393C19.6691 42.2149 19.3396 41.4246 18.754 40.842C18.1685 40.2595 17.3748 39.9323 16.5473 39.9323ZM16.5473 44.2718C16.2744 44.2709 16.0078 44.1895 15.7814 44.0378C15.5549 43.8862 15.3786 43.671 15.2747 43.4196C15.1709 43.1681 15.1442 42.8917 15.1979 42.6251C15.2517 42.3586 15.3835 42.1139 15.5768 41.9219C15.7701 41.73 16.0161 41.5994 16.2839 41.5466C16.5516 41.4939 16.829 41.5214 17.081 41.6257C17.3331 41.7299 17.5484 41.9062 17.7 42.1323C17.8515 42.3585 17.9324 42.6243 17.9324 42.8961C17.9324 43.077 17.8965 43.256 17.8268 43.4229C17.7571 43.5899 17.6549 43.7414 17.5262 43.8689C17.3974 43.9963 17.2447 44.0972 17.0767 44.1656C16.9087 44.234 16.7288 44.2686 16.5473 44.2674V44.2718Z" fill="#577CBE"/>
<path d="M16.5473 49.1146C16.4822 49.1148 16.4179 49.1005 16.3591 49.0727C16.3003 49.045 16.2485 49.0044 16.2075 48.9541C15.8765 48.5201 12.993 44.8532 12.993 43.0393C13.0253 42.121 13.4141 41.2511 14.0775 40.6129C14.741 39.9746 15.6272 39.6179 16.5494 39.6179C17.4717 39.6179 18.3579 39.9746 19.0214 40.6129C19.6848 41.2511 20.0736 42.121 20.1059 43.0393C20.1059 44.8532 17.218 48.5375 16.8914 48.9541C16.8499 49.005 16.7974 49.0459 16.7378 49.0737C16.6782 49.1015 16.6131 49.1155 16.5473 49.1146ZM16.5473 40.3661C15.8364 40.3684 15.1552 40.6508 14.6526 41.1516C14.1499 41.6524 13.8665 42.331 13.8642 43.0393C13.8642 44.1719 15.5716 46.6758 16.5473 47.969C17.5273 46.6671 19.2347 44.1719 19.2347 43.0393C19.2324 42.3303 18.9484 41.651 18.4448 41.1501C17.9412 40.6492 17.2589 40.3673 16.5473 40.3661ZM16.5473 44.7057C16.1882 44.7048 15.8375 44.5979 15.5394 44.3986C15.2412 44.1992 15.0091 43.9163 14.8723 43.5856C14.7355 43.2549 14.7002 42.8911 14.7707 42.5404C14.8413 42.1897 15.0146 41.8676 15.2688 41.615C15.523 41.3624 15.8467 41.1904 16.1989 41.121C16.5511 41.0515 16.9161 41.0876 17.2477 41.2247C17.5793 41.3618 17.8628 41.5937 18.0621 41.8912C18.2615 42.1887 18.3679 42.5384 18.3679 42.8961C18.3674 43.1337 18.3198 43.3689 18.228 43.5883C18.1362 43.8076 18.0019 44.0068 17.8329 44.1744C17.6638 44.342 17.4633 44.4748 17.2427 44.5652C17.0221 44.6557 16.7858 44.7019 16.5473 44.7013V44.7057ZM16.5473 41.9544C16.3605 41.9553 16.1782 42.0112 16.0233 42.1152C15.8685 42.2192 15.748 42.3666 15.6771 42.5387C15.6063 42.7109 15.5882 42.9001 15.6251 43.0824C15.6621 43.2648 15.7525 43.4322 15.8848 43.5635C16.0172 43.6947 16.1856 43.784 16.3688 43.82C16.5521 43.856 16.7419 43.8371 16.9143 43.7657C17.0868 43.6943 17.2341 43.5736 17.3378 43.4188C17.4415 43.264 17.4968 43.0821 17.4968 42.8961C17.4974 42.7717 17.4732 42.6484 17.4257 42.5334C17.3782 42.4183 17.3083 42.3138 17.22 42.2259C17.1317 42.1379 17.0268 42.0682 16.9113 42.0209C16.7959 41.9736 16.6721 41.9495 16.5473 41.9501V41.9544Z" fill="#093F68"/>
<path d="M16.9001 54.7994L18.0543 57.1254L20.6329 57.4986C20.7078 57.5096 20.7782 57.5412 20.836 57.59C20.8937 57.6388 20.9366 57.7028 20.9598 57.7746C20.9829 57.8465 20.9854 57.9234 20.9668 57.9965C20.9483 58.0697 20.9096 58.1362 20.855 58.1886L18.9908 59.9982L19.4264 62.5585C19.4412 62.6334 19.4343 62.7109 19.4066 62.7821C19.3789 62.8532 19.3316 62.9151 19.27 62.9606C19.2085 63.006 19.1352 63.0331 19.0588 63.0388C18.9824 63.0444 18.906 63.0283 18.8384 62.9924L16.5298 61.786L14.2257 62.9924C14.1581 63.0283 14.0816 63.0444 14.0052 63.0388C13.9288 63.0331 13.8556 63.006 13.794 62.9606C13.7325 62.9151 13.6851 62.8532 13.6574 62.7821C13.6297 62.7109 13.6229 62.6334 13.6377 62.5585L14.0732 59.9982L12.209 58.1886C12.1544 58.1362 12.1157 58.0697 12.0972 57.9965C12.0787 57.9234 12.0811 57.8465 12.1043 57.7746C12.1274 57.7028 12.1703 57.6388 12.2281 57.59C12.2859 57.5412 12.3562 57.5096 12.4311 57.4986L15.0097 57.1254L16.164 54.7994C16.1963 54.7293 16.2482 54.6698 16.3134 54.6282C16.3787 54.5865 16.4545 54.5644 16.532 54.5644C16.6095 54.5644 16.6854 54.5865 16.7506 54.6282C16.8158 54.6698 16.8677 54.7293 16.9001 54.7994Z" fill="#577CBE"/>
<path d="M19.0431 63.4655C18.908 63.4658 18.7748 63.4331 18.6554 63.37L16.5473 62.2678L14.4435 63.37C14.3062 63.4397 14.1524 63.4705 13.9987 63.4591C13.8451 63.4476 13.6976 63.3943 13.5723 63.3049C13.4451 63.2133 13.3465 63.0876 13.2879 62.9425C13.2293 62.7973 13.2132 62.6386 13.2413 62.4847L13.642 60.1501L11.9389 58.4967C11.8234 58.3878 11.7418 58.248 11.704 58.0941C11.6661 57.9402 11.6736 57.7786 11.7255 57.6288C11.7736 57.4796 11.8628 57.3467 11.9829 57.2455C12.103 57.1442 12.2493 57.0786 12.405 57.056L14.7571 56.7175L15.8068 54.5912C15.8766 54.4515 15.984 54.3341 16.1172 54.2521C16.2503 54.17 16.4038 54.1267 16.5603 54.1268C16.7163 54.1265 16.8693 54.1698 17.0018 54.2519C17.1343 54.334 17.2409 54.4516 17.3095 54.5912L18.3636 56.7175L20.7157 57.056C20.8714 57.0786 21.0176 57.1442 21.1377 57.2455C21.2579 57.3467 21.3471 57.4796 21.3952 57.6288C21.4471 57.7786 21.4545 57.9402 21.4167 58.0941C21.3788 58.248 21.2973 58.3878 21.1817 58.4967L19.4786 60.1501L19.8794 62.4847C19.9011 62.6051 19.896 62.7288 19.8644 62.8469C19.8328 62.9651 19.7754 63.0749 19.6964 63.1685C19.6174 63.2621 19.5187 63.3372 19.4073 63.3885C19.2959 63.4399 19.1745 63.4661 19.0518 63.4655H19.0431ZM16.5473 61.3608C16.6184 61.3598 16.6887 61.3762 16.752 61.4085L19.0039 62.5889L18.5683 60.0893C18.5569 60.0203 18.5624 59.9494 18.5844 59.8829C18.6064 59.8164 18.6442 59.7562 18.6946 59.7075L20.5153 57.9369L17.9977 57.5724C17.9284 57.5624 17.8624 57.5359 17.8056 57.4951C17.7487 57.4543 17.7026 57.4004 17.671 57.3381L16.5342 55.0468L15.4191 57.3381C15.3876 57.4004 15.3415 57.4543 15.2846 57.4951C15.2277 57.5359 15.1618 57.5624 15.0925 57.5724L12.5749 57.9369L14.3956 59.7075C14.446 59.7562 14.4838 59.8164 14.5058 59.8829C14.5278 59.9494 14.5333 60.0203 14.5219 60.0893L14.0863 62.5889L16.3382 61.4085C16.4022 61.374 16.4745 61.3575 16.5473 61.3608Z" fill="#093F68"/>
<path d="M39.0052 49.5139C38.8897 49.5139 38.7789 49.4682 38.6972 49.3868C38.6155 49.3054 38.5696 49.195 38.5696 49.0799V40.4226C38.5696 40.3075 38.6155 40.1971 38.6972 40.1157C38.7789 40.0344 38.8897 39.9886 39.0052 39.9886C39.1207 39.9886 39.2315 40.0344 39.3132 40.1157C39.3949 40.1971 39.4408 40.3075 39.4408 40.4226V49.0799C39.4408 49.195 39.3949 49.3054 39.3132 49.3868C39.2315 49.4682 39.1207 49.5139 39.0052 49.5139Z" fill="#093F68"/>
<path d="M46.815 45.413H39.0052V41.2211H46.815L45.1685 43.3171L46.815 45.413Z" fill="#577CBE"/>
<path d="M46.815 45.8514H39.0052C38.8897 45.8514 38.7789 45.8057 38.6972 45.7243C38.6155 45.6429 38.5696 45.5325 38.5696 45.4174V41.2211C38.5696 41.106 38.6155 40.9957 38.6972 40.9143C38.7789 40.8329 38.8897 40.7872 39.0052 40.7872H46.815C46.8959 40.7878 46.975 40.8109 47.0434 40.8538C47.1119 40.8967 47.167 40.9578 47.2026 41.0302C47.239 41.1036 47.2538 41.1857 47.2453 41.2671C47.2368 41.3485 47.2054 41.4258 47.1547 41.4902L45.7217 43.3171L47.1547 45.1484C47.2053 45.2122 47.2369 45.2889 47.2459 45.3698C47.2549 45.4507 47.2408 45.5324 47.2054 45.6057C47.17 45.679 47.1146 45.7409 47.0456 45.7843C46.9765 45.8278 46.8966 45.851 46.815 45.8514ZM39.4408 44.9835H45.9177L44.8244 43.5688C44.7647 43.4926 44.7323 43.3986 44.7323 43.3019C44.7323 43.2052 44.7647 43.1113 44.8244 43.035L45.9177 41.6377H39.4408V44.9835Z" fill="#093F68"/>
<path d="M47.6295 57.043H38.3039V62.9491H47.6295V57.043Z" fill="#577CBE"/>
<path d="M47.6295 63.383H38.3039C38.1884 63.383 38.0776 63.3373 37.996 63.2559C37.9143 63.1745 37.8684 63.0641 37.8684 62.949V57.043C37.8684 56.9279 37.9143 56.8175 37.996 56.7361C38.0776 56.6547 38.1884 56.609 38.3039 56.609H47.6295C47.745 56.609 47.8558 56.6547 47.9375 56.7361C48.0192 56.8175 48.0651 56.9279 48.0651 57.043V62.949C48.0651 63.0641 48.0192 63.1745 47.9375 63.2559C47.8558 63.3373 47.745 63.383 47.6295 63.383ZM38.7395 62.5151H47.1939V57.4769H38.7395V62.5151Z" fill="#093F68"/>
<path d="M38.5522 57.043H47.6295V57.5941C47.6295 58.0752 47.4377 58.5365 47.0962 58.8767C46.7548 59.2169 46.2917 59.408 45.8088 59.408H40.3729C39.89 59.408 39.4269 59.2169 39.0855 58.8767C38.744 58.5365 38.5522 58.0752 38.5522 57.5941V57.043Z" fill="#577CBE"/>
<path d="M45.8088 59.8419H40.3729C39.7745 59.8419 39.2006 59.6051 38.7775 59.1836C38.3544 58.762 38.1167 58.1903 38.1167 57.5941V57.043C38.1167 56.9279 38.1625 56.8175 38.2442 56.7361C38.3259 56.6547 38.4367 56.609 38.5522 56.609H47.6295C47.745 56.609 47.8558 56.6547 47.9375 56.7361C48.0192 56.8175 48.0651 56.9279 48.0651 57.043V57.5941C48.0651 58.1903 47.8273 58.762 47.4042 59.1836C46.9811 59.6051 46.4072 59.8419 45.8088 59.8419ZM38.9878 57.4769V57.5941C38.9878 57.9601 39.1337 58.3111 39.3935 58.5699C39.6532 58.8287 40.0055 58.974 40.3729 58.974H45.8088C46.1762 58.974 46.5285 58.8287 46.7882 58.5699C47.048 58.3111 47.1939 57.9601 47.1939 57.5941V57.4769H38.9878Z" fill="#093F68"/>
<path d="M45.0248 57.4769H41.4183C41.3027 57.4769 41.1919 57.4312 41.1103 57.3498C41.0286 57.2685 40.9827 57.1581 40.9827 57.043V56.2445C40.9838 55.8804 41.1298 55.5316 41.3886 55.2746C41.6475 55.0176 41.998 54.8732 42.3634 54.8732H44.0839C44.449 54.8732 44.7991 55.0177 45.0572 55.2749C45.3153 55.532 45.4603 55.8808 45.4603 56.2445V57.043C45.4603 57.1581 45.4144 57.2685 45.3328 57.3498C45.2511 57.4312 45.1403 57.4769 45.0248 57.4769ZM41.8538 56.609H44.5892V56.2445C44.5892 56.111 44.536 55.983 44.4412 55.8886C44.3465 55.7942 44.2179 55.7411 44.0839 55.7411H42.3634C42.229 55.7411 42.1001 55.794 42.0046 55.8883C41.9092 55.9826 41.855 56.1106 41.8538 56.2445V56.609Z" fill="#093F68"/>
<path d="M32.145 43.3257H24.1305C24.015 43.3257 23.9042 43.28 23.8225 43.1986C23.7409 43.1172 23.695 43.0069 23.695 42.8918C23.695 42.7767 23.7409 42.6663 23.8225 42.5849C23.9042 42.5035 24.015 42.4578 24.1305 42.4578H32.145C32.2605 42.4578 32.3713 42.5035 32.453 42.5849C32.5347 42.6663 32.5806 42.7767 32.5806 42.8918C32.5806 43.0069 32.5347 43.1172 32.453 43.1986C32.3713 43.28 32.2605 43.3257 32.145 43.3257Z" fill="#DFEAEF"/>
<path d="M59.686 43.3257H51.6846C51.5691 43.3257 51.4583 43.28 51.3766 43.1986C51.2949 43.1172 51.2491 43.0069 51.2491 42.8918C51.2491 42.7767 51.2949 42.6663 51.3766 42.5849C51.4583 42.5035 51.5691 42.4578 51.6846 42.4578H59.686C59.8016 42.4578 59.9123 42.5035 59.994 42.5849C60.0757 42.6663 60.1216 42.7767 60.1216 42.8918C60.1216 43.0069 60.0757 43.1172 59.994 43.1986C59.9123 43.28 59.8016 43.3257 59.686 43.3257Z" fill="#DFEAEF"/>
<path d="M29.8888 46.5414H24.1305C24.015 46.5414 23.9042 46.4956 23.8225 46.4143C23.7409 46.3329 23.695 46.2225 23.695 46.1074C23.695 45.9923 23.7409 45.8819 23.8225 45.8006C23.9042 45.7192 24.015 45.6735 24.1305 45.6735H29.8888C30.0043 45.6735 30.1151 45.7192 30.1967 45.8006C30.2784 45.8819 30.3243 45.9923 30.3243 46.1074C30.3243 46.2225 30.2784 46.3329 30.1967 46.4143C30.1151 46.4956 30.0043 46.5414 29.8888 46.5414Z" fill="#DFEAEF"/>
<path d="M56.698 46.5414H51.6846C51.5691 46.5414 51.4583 46.4956 51.3766 46.4143C51.2949 46.3329 51.2491 46.2225 51.2491 46.1074C51.2491 45.9923 51.2949 45.8819 51.3766 45.8006C51.4583 45.7192 51.5691 45.6735 51.6846 45.6735H56.698C56.8135 45.6735 56.9243 45.7192 57.006 45.8006C57.0877 45.8819 57.1336 45.9923 57.1336 46.1074C57.1336 46.2225 57.0877 46.3329 57.006 46.4143C56.9243 46.4956 56.8135 46.5414 56.698 46.5414Z" fill="#DFEAEF"/>
<path d="M32.145 58.2364H24.1305C24.015 58.2364 23.9042 58.1907 23.8225 58.1093C23.7409 58.0279 23.695 57.9175 23.695 57.8024C23.695 57.6873 23.7409 57.577 23.8225 57.4956C23.9042 57.4142 24.015 57.3685 24.1305 57.3685H32.145C32.2605 57.3685 32.3713 57.4142 32.453 57.4956C32.5347 57.577 32.5806 57.6873 32.5806 57.8024C32.5806 57.9175 32.5347 58.0279 32.453 58.1093C32.3713 58.1907 32.2605 58.2364 32.145 58.2364Z" fill="#DFEAEF"/>
<path d="M59.686 58.2364H51.6846C51.5691 58.2364 51.4583 58.1907 51.3766 58.1093C51.2949 58.0279 51.2491 57.9175 51.2491 57.8024C51.2491 57.6873 51.2949 57.577 51.3766 57.4956C51.4583 57.4142 51.5691 57.3685 51.6846 57.3685H59.686C59.8016 57.3685 59.9123 57.4142 59.994 57.4956C60.0757 57.577 60.1216 57.6873 60.1216 57.8024C60.1216 57.9175 60.0757 58.0279 59.994 58.1093C59.9123 58.1907 59.8016 58.2364 59.686 58.2364Z" fill="#DFEAEF"/>
<path d="M29.8888 61.4519H24.1305C24.015 61.4519 23.9042 61.4062 23.8225 61.3248C23.7409 61.2435 23.695 61.1331 23.695 61.018C23.695 60.9029 23.7409 60.7925 23.8225 60.7111C23.9042 60.6298 24.015 60.584 24.1305 60.584H29.8888C30.0043 60.584 30.1151 60.6298 30.1967 60.7111C30.2784 60.7925 30.3243 60.9029 30.3243 61.018C30.3243 61.1331 30.2784 61.2435 30.1967 61.3248C30.1151 61.4062 30.0043 61.4519 29.8888 61.4519Z" fill="#DFEAEF"/>
<path d="M56.698 61.4519H51.6846C51.5691 61.4519 51.4583 61.4062 51.3766 61.3248C51.2949 61.2435 51.2491 61.1331 51.2491 61.018C51.2491 60.9029 51.2949 60.7925 51.3766 60.7111C51.4583 60.6298 51.5691 60.584 51.6846 60.584H56.698C56.8135 60.584 56.9243 60.6298 57.006 60.7111C57.0877 60.7925 57.1336 60.9029 57.1336 61.018C57.1336 61.1331 57.0877 61.2435 57.006 61.3248C56.9243 61.4062 56.8135 61.4519 56.698 61.4519Z" fill="#DFEAEF"/>
</svg>
