<svg width="62" height="72" viewBox="0 0 62 72" fill="none" xmlns="http://www.w3.org/2000/svg">
<path d="M54.1012 8.13055H3.05636C1.58648 8.13055 0.394905 9.22605 0.394905 10.5774V68.7196C0.394905 70.071 1.58648 71.1665 3.05636 71.1665H54.1012C55.571 71.1665 56.7626 70.071 56.7626 68.7196V10.5774C56.7626 9.22605 55.571 8.13055 54.1012 8.13055Z" fill="#68E1FD"/>
<path d="M54.0806 71.5447H3.07281C2.25818 71.5437 1.47724 71.2457 0.90121 70.7161C0.325182 70.1866 0.00108835 69.4686 0 68.7196V10.5774C0.00108835 9.82848 0.325182 9.1105 0.90121 8.58092C1.47724 8.05134 2.25818 7.75338 3.07281 7.75238H54.0806C54.8952 7.75338 55.6762 8.05134 56.2522 8.58092C56.8282 9.1105 57.1523 9.82848 57.1534 10.5774V68.7196C57.1523 69.4686 56.8282 70.1866 56.2522 70.7161C55.6762 71.2457 54.8952 71.5437 54.0806 71.5447ZM3.07281 8.50875C2.47604 8.50875 1.90372 8.7267 1.48175 9.11465C1.05977 9.5026 0.822706 10.0288 0.822706 10.5774V68.7196C0.822706 69.2683 1.05977 69.7944 1.48175 70.1824C1.90372 70.5704 2.47604 70.7883 3.07281 70.7883H54.0806C54.6774 70.7883 55.2497 70.5704 55.6717 70.1824C56.0936 69.7944 56.3307 69.2683 56.3307 68.7196V10.5774C56.3307 10.0288 56.0936 9.5026 55.6717 9.11465C55.2497 8.7267 54.6774 8.50875 54.0806 8.50875H3.07281Z" fill="#093F68"/>
<path d="M51.9704 11.2997H5.17893V67.2371H51.9704V11.2997Z" fill="white"/>
<path d="M51.9745 67.6191H5.17894C5.06984 67.6191 4.96521 67.5793 4.88806 67.5083C4.81092 67.4374 4.76758 67.3412 4.76758 67.2409V11.2998C4.76758 11.1995 4.81092 11.1033 4.88806 11.0323C4.96521 10.9614 5.06984 10.9216 5.17894 10.9216H51.9745C52.0836 10.9216 52.1882 10.9614 52.2653 11.0323C52.3425 11.1033 52.3858 11.1995 52.3858 11.2998V67.2409C52.3858 67.3412 52.3425 67.4374 52.2653 67.5083C52.1882 67.5793 52.0836 67.6191 51.9745 67.6191ZM5.59029 66.8628H51.5631V11.6779H5.59029V66.8628Z" fill="#093F68"/>
<path d="M19.3089 29.8497H11.9046C11.7955 29.8497 11.6908 29.8099 11.6137 29.739C11.5365 29.6681 11.4932 29.5719 11.4932 29.4716V23.5076C11.4932 23.4073 11.5365 23.3111 11.6137 23.2402C11.6908 23.1692 11.7955 23.1294 11.9046 23.1294H19.3089C19.418 23.1294 19.5226 23.1692 19.5998 23.2402C19.6769 23.3111 19.7203 23.4073 19.7203 23.5076V29.4716C19.7203 29.5719 19.6769 29.6681 19.5998 29.739C19.5226 29.8099 19.418 29.8497 19.3089 29.8497ZM12.3159 29.0934H18.8976V23.8858H12.3159V29.0934Z" fill="#DFEAEF"/>
<path d="M43.9407 25.3569H31.74C31.0153 25.3569 30.4278 25.897 30.4278 26.5633C30.4278 27.2296 31.0153 27.7697 31.74 27.7697H43.9407C44.6655 27.7697 45.253 27.2296 45.253 26.5633C45.253 25.897 44.6655 25.3569 43.9407 25.3569Z" fill="#DFEAEF"/>
<path d="M19.3089 45.0415H11.9046C11.7955 45.0415 11.6908 45.0016 11.6137 44.9307C11.5365 44.8598 11.4932 44.7636 11.4932 44.6633V38.6993C11.4932 38.599 11.5365 38.5028 11.6137 38.4319C11.6908 38.361 11.7955 38.3211 11.9046 38.3211H19.3089C19.418 38.3211 19.5226 38.361 19.5998 38.4319C19.6769 38.5028 19.7203 38.599 19.7203 38.6993V44.6633C19.7203 44.7636 19.6769 44.8598 19.5998 44.9307C19.5226 45.0016 19.418 45.0415 19.3089 45.0415ZM12.3159 44.2851H18.8976V39.0775H12.3159V44.2851Z" fill="#DFEAEF"/>
<path d="M43.9407 40.5448H31.74C31.0153 40.5448 30.4278 41.085 30.4278 41.7512C30.4278 42.4175 31.0153 42.9577 31.74 42.9577H43.9407C44.6655 42.9577 45.253 42.4175 45.253 41.7512C45.253 41.085 44.6655 40.5448 43.9407 40.5448Z" fill="#DFEAEF"/>
<path d="M19.3089 60.2332H11.9046C11.7955 60.2332 11.6908 60.1933 11.6137 60.1224C11.5365 60.0515 11.4932 59.9553 11.4932 59.855V53.891C11.4932 53.7907 11.5365 53.6945 11.6137 53.6236C11.6908 53.5527 11.7955 53.5128 11.9046 53.5128H19.3089C19.418 53.5128 19.5226 53.5527 19.5998 53.6236C19.6769 53.6945 19.7203 53.7907 19.7203 53.891V59.855C19.7203 59.9553 19.6769 60.0515 19.5998 60.1224C19.5226 60.1933 19.418 60.2332 19.3089 60.2332ZM12.3159 59.4768H18.8976V54.2692H12.3159V59.4768Z" fill="#DFEAEF"/>
<path d="M43.9407 55.7365H31.74C31.0153 55.7365 30.4278 56.2767 30.4278 56.9429C30.4278 57.6092 31.0153 58.1494 31.74 58.1494H43.9407C44.6655 58.1494 45.253 57.6092 45.253 56.9429C45.253 56.2767 44.6655 55.7365 43.9407 55.7365Z" fill="#DFEAEF"/>
<path d="M10.5553 39.6599L16.4294 44.9999L25.2694 37.2584L23.1386 35.2994L16.4294 41.1726L12.6861 37.7916L10.5553 39.6599Z" fill="#FFBC0E"/>
<path d="M16.4294 45.378C16.3215 45.3776 16.2181 45.3382 16.1415 45.2684L10.2633 39.9208C10.2246 39.885 10.1942 39.8425 10.1737 39.7958C10.1532 39.749 10.1431 39.6989 10.144 39.6485C10.1447 39.5982 10.1564 39.5486 10.1783 39.5025C10.2002 39.4564 10.2319 39.4147 10.2715 39.38L12.4023 37.5118C12.479 37.4436 12.5815 37.4055 12.6882 37.4055C12.7949 37.4055 12.8974 37.4436 12.9741 37.5118L16.4336 40.6356L22.8548 35.0158C22.9317 34.9465 23.0351 34.9077 23.1427 34.9077C23.2504 34.9077 23.3538 34.9465 23.4307 35.0158L25.5574 36.971C25.5967 37.0064 25.6279 37.0488 25.6491 37.0956C25.6703 37.1424 25.6811 37.1926 25.6808 37.2433C25.68 37.2936 25.6684 37.3432 25.6465 37.3893C25.6246 37.4355 25.5929 37.4771 25.5533 37.5118L16.7133 45.2532C16.6404 45.3278 16.5383 45.3727 16.4294 45.378ZM11.1436 39.6637L16.4336 44.459L24.6812 37.2357L23.1304 35.8137L16.7133 41.4336C16.6366 41.5017 16.5341 41.5398 16.4274 41.5398C16.3207 41.5398 16.2182 41.5017 16.1415 41.4336L12.682 38.306L11.1436 39.6637Z" fill="#093F68"/>
<path d="M10.5553 24.4077L16.4294 29.7476L25.2694 22.0062L23.1386 20.0472L16.4294 25.9204L12.6861 22.5394L10.5553 24.4077Z" fill="#FFBC0E"/>
<path d="M16.4294 30.1258C16.3215 30.1254 16.2181 30.086 16.1415 30.0162L10.2633 24.6762C10.2246 24.6404 10.1942 24.5979 10.1737 24.5511C10.1532 24.5044 10.1431 24.4543 10.144 24.4039C10.1442 24.353 10.1556 24.3026 10.1775 24.2558C10.1994 24.209 10.2314 24.1668 10.2715 24.1316L12.4023 22.2672C12.479 22.199 12.5815 22.1609 12.6882 22.1609C12.7949 22.1609 12.8974 22.199 12.9741 22.2672L16.4336 25.391L22.8548 19.7711C22.9317 19.7018 23.0351 19.663 23.1427 19.663C23.2504 19.663 23.3538 19.7018 23.4307 19.7711L25.5574 21.7263C25.5967 21.7618 25.6279 21.8042 25.6491 21.851C25.6703 21.8978 25.6811 21.948 25.6808 21.9986C25.68 22.0489 25.6684 22.0986 25.6465 22.1447C25.6246 22.1908 25.5929 22.2324 25.5533 22.2672L16.7133 30.0086C16.639 30.0803 16.5371 30.1224 16.4294 30.1258ZM11.1436 24.4152L16.4336 29.2258L24.6812 22.0024L23.1304 20.5804L16.7133 26.2003C16.6366 26.2684 16.5341 26.3065 16.4274 26.3065C16.3207 26.3065 16.2182 26.2684 16.1415 26.2003L12.682 23.0727L11.1436 24.4152Z" fill="#093F68"/>
<path d="M41.5714 47.1933C38.0301 49.7194 34.2857 51.995 30.3702 54.0007C27.7428 55.3705 24.9764 56.5015 22.1102 57.3779L21.5138 56.6593C23.1746 54.3416 25.0772 52.1782 27.1946 50.1999C30.3148 47.2386 33.6772 44.5014 37.2521 42.0122C43.0399 37.9354 51.6125 31.6008 56.5487 28.3181C56.9143 28.0743 57.3689 27.9712 57.8158 28.0305C58.2628 28.0898 58.6671 28.3069 58.9428 28.6358L61.234 31.3814C61.5085 31.7112 61.6324 32.1263 61.5794 32.5386C61.5265 32.951 61.3007 33.3282 60.9502 33.59C56.2279 37.1223 47.3591 43.1089 41.5714 47.1933Z" fill="#FFBC0E"/>
<path d="M22.1102 57.7674C22.0474 57.7672 21.9855 57.7539 21.9291 57.7283C21.8728 57.7027 21.8236 57.6657 21.7853 57.6199L21.1723 56.9013C21.1215 56.84 21.0923 56.7658 21.0886 56.6887C21.0849 56.6117 21.107 56.5354 21.1518 56.4702C22.8271 54.1288 24.7476 51.9438 26.886 49.9465C30.0237 46.9748 33.4009 44.2252 36.9889 41.721C39.0662 40.2536 41.4685 38.5253 44.0066 36.6949C48.4944 33.4652 53.1304 30.122 56.2978 27.9966C56.747 27.6906 57.3089 27.5587 57.8627 27.6294C58.4165 27.7001 58.9181 27.9678 59.2595 28.3748L61.5549 31.1204C61.8967 31.5275 62.0512 32.0416 61.985 32.5522C61.9189 33.0628 61.6374 33.5291 61.2011 33.8509C58.1612 36.1201 53.443 39.3876 48.8811 42.5492C46.3101 44.3267 43.879 46.0096 41.8099 47.4656C38.2508 50.0063 34.4886 52.297 30.5553 54.3183C27.9038 55.6985 25.1127 56.8384 22.2213 57.722C22.1869 57.7421 22.1495 57.7574 22.1102 57.7674ZM22.0156 56.6517L22.2624 56.9467C25.0019 56.0813 27.6497 54.9876 30.1728 53.6792C34.0717 51.6788 37.8009 49.4108 41.3287 46.8946C43.3854 45.4272 45.8535 43.7481 48.408 41.9781C52.9617 38.8279 57.6758 35.5717 60.7034 33.3064C60.9722 33.1079 61.1456 32.8205 61.1863 32.5058C61.2271 32.1912 61.132 31.8743 60.9214 31.6234L58.6055 28.8665C58.3964 28.614 58.0877 28.4472 57.7461 28.402C57.4045 28.3567 57.0572 28.4366 56.7791 28.6244C53.624 30.7271 48.9922 34.0627 44.5125 37.2924C41.9663 39.1228 39.5763 40.8512 37.4866 42.3223C33.9297 44.8021 30.5826 47.5265 27.4743 50.4722C25.4537 52.3748 23.6265 54.4432 22.0156 56.6517Z" fill="#093F68"/>
<path d="M56.5487 28.3181C56.5487 28.3181 54.71 27.2781 52.7314 27.8907C50.7528 28.5034 38.7042 37.7916 38.7042 37.7916C38.7042 37.7916 40.1193 38.548 41.2916 37.8673C42.464 37.1865 42.0609 36.3016 42.0609 36.3016C42.0609 36.3016 50.3496 30.3036 51.2669 29.9972C52.1843 29.6909 53.0769 30.712 53.0769 30.712L56.5487 28.3181Z" fill="#093F68"/>
<path d="M40.1851 38.5253C39.5973 38.5152 39.0206 38.3765 38.5027 38.1207C38.445 38.0904 38.3962 38.0478 38.3604 37.9964C38.3246 37.945 38.3028 37.8865 38.297 37.8257C38.2913 37.7654 38.3014 37.7048 38.3264 37.6489C38.3515 37.5929 38.3907 37.5433 38.441 37.5042C39.675 36.5474 50.6047 28.1517 52.6038 27.5315C54.7388 26.8734 56.6845 27.9513 56.7667 27.9967C56.8238 28.0289 56.8715 28.0734 56.9056 28.1264C56.9397 28.1793 56.9592 28.2392 56.9624 28.3007C56.9657 28.3622 56.9526 28.4234 56.9242 28.4792C56.8958 28.535 56.8531 28.5835 56.7996 28.6207L53.3278 31.0146C53.2426 31.0737 53.1358 31.1 53.0298 31.088C52.9239 31.076 52.8272 31.0266 52.7602 30.9503C52.7602 30.9503 52.0321 30.1485 51.4109 30.3527C50.7898 30.557 45.726 34.1346 42.5257 36.4529C42.5655 36.8026 42.4898 37.1551 42.3086 37.4648C42.1274 37.7744 41.849 38.0266 41.5096 38.1887C41.1117 38.414 40.6524 38.5307 40.1851 38.5253ZM39.5022 37.6744C39.7603 37.7538 40.0335 37.7833 40.3046 37.7612C40.5757 37.739 40.8389 37.6657 41.0777 37.5458C41.9004 37.0807 41.7071 36.4983 41.6824 36.434C41.6525 36.3591 41.6492 36.2774 41.6728 36.2007C41.6964 36.1239 41.7459 36.056 41.814 36.0066C43.2044 34.9969 50.1974 29.9557 51.1312 29.6418C51.9539 29.3619 52.7355 29.8687 53.1263 30.209L55.7589 28.39C54.8449 28.0414 53.8284 27.9921 52.8794 28.25C51.378 28.7114 43.1674 34.8607 39.5022 37.6744Z" fill="#093F68"/>
<path d="M30.3702 54.012C27.7428 55.3818 24.9764 56.5129 22.1102 57.3892L21.5138 56.6707C23.1746 54.353 25.0772 52.1896 27.1946 50.2113L30.3702 54.012Z" fill="white"/>
<path d="M22.1102 57.7674C22.0474 57.7673 21.9855 57.7539 21.9291 57.7283C21.8728 57.7028 21.8236 57.6657 21.7853 57.6199L21.1723 56.9014C21.1215 56.84 21.0923 56.7658 21.0886 56.6888C21.0849 56.6117 21.107 56.5354 21.1518 56.4702C22.8271 54.1288 24.7476 51.9438 26.886 49.9465C26.927 49.908 26.9764 49.8779 27.0311 49.8583C27.0857 49.8388 27.1442 49.8301 27.2028 49.8331C27.2621 49.836 27.32 49.8507 27.3726 49.8762C27.4251 49.9016 27.471 49.9372 27.5072 49.9806L30.6828 53.7813C30.7196 53.8247 30.7456 53.8749 30.7591 53.9285C30.7726 53.982 30.7733 54.0376 30.761 54.0914C30.7486 54.1448 30.7238 54.1951 30.6883 54.2388C30.6528 54.2826 30.6075 54.3187 30.5553 54.3448C27.9038 55.7249 25.1127 56.8649 22.2213 57.7485C22.1854 57.7595 22.148 57.7658 22.1102 57.7674ZM22.0156 56.6518L22.2624 56.9467C24.8504 56.1314 27.3555 55.1089 29.7491 53.891L27.1616 50.7899C25.2636 52.6021 23.5417 54.5635 22.0156 56.6518Z" fill="#093F68"/>
<path d="M21.5814 56.7504L22.0524 57.3143L20.868 58.1504C20.7997 58.1986 20.7133 58.2199 20.6278 58.2096C20.5423 58.1993 20.4648 58.1582 20.4124 58.0954L20.3397 58.0084C20.2872 57.9455 20.264 57.8661 20.2753 57.7875C20.2865 57.709 20.3312 57.6377 20.3995 57.5895L21.6002 56.7418L21.5814 56.7504Z" fill="#093F68"/>
<path d="M20.6499 58.5994H20.5512C20.3576 58.5735 20.1823 58.48 20.0617 58.3385L19.9918 58.2515C19.9316 58.1811 19.8874 58.1003 19.862 58.0139C19.8365 57.9274 19.8303 57.8372 19.8437 57.7485C19.8702 57.57 19.9722 57.4083 20.1275 57.2984L21.3245 56.4513C21.3676 56.4207 21.4169 56.3983 21.4695 56.3853C21.5221 56.3724 21.5769 56.3692 21.6309 56.3759C21.6848 56.3825 21.7368 56.399 21.7838 56.4243C21.8308 56.4496 21.8718 56.4832 21.9046 56.5232L22.3735 57.0867C22.4398 57.166 22.4693 57.2662 22.4554 57.3655C22.4416 57.4647 22.3855 57.5548 22.2995 57.6161L21.0983 58.4519C20.9703 58.5446 20.8129 58.5964 20.6499 58.5994Z" fill="#093F68"/>
<path d="M43.0152 4.97271H33.7885C33.7511 3.76743 33.204 2.62307 32.2634 1.78273C31.3229 0.942392 30.063 0.47229 28.7515 0.47229C27.44 0.47229 26.1802 0.942392 25.2396 1.78273C24.2991 2.62307 23.752 3.76743 23.7145 4.97271H14.1382C13.8109 4.97271 13.497 5.09224 13.2656 5.30501C13.0342 5.51778 12.9041 5.80636 12.9041 6.10726V12.4986C12.9052 13.5124 13.3429 14.4845 14.1215 15.2024C14.9 15.9203 15.9561 16.3256 17.0588 16.3296H40.0946C41.1994 16.3286 42.2587 15.9247 43.0399 15.2064C43.8211 14.4882 44.2605 13.5143 44.2616 12.4986V6.11105C44.2622 5.96078 44.2302 5.8119 44.1677 5.67307C44.1051 5.53424 44.0132 5.40821 43.8973 5.3023C43.7813 5.1964 43.6436 5.11273 43.4922 5.05615C43.3408 4.99957 43.1786 4.9712 43.0152 4.97271ZM28.7536 3.1196C29.2897 3.11958 29.8041 3.31434 30.1847 3.66143C30.5653 4.00853 30.7813 4.47985 30.7857 4.97271C30.7621 5.45415 30.5375 5.90869 30.1586 6.24172C29.7797 6.57475 29.2757 6.76061 28.7515 6.76061C28.2273 6.76061 27.7233 6.57475 27.3444 6.24172C26.9655 5.90869 26.7409 5.45415 26.7174 4.97271C26.7217 4.47919 26.9383 4.00731 27.3198 3.6601C27.7013 3.3129 28.2168 3.11859 28.7536 3.1196Z" fill="#68E1FD"/>
<path d="M40.0946 16.7078H17.0588C15.847 16.7038 14.6863 16.2587 13.8306 15.4699C12.9749 14.681 12.4939 13.6127 12.4928 12.4986V6.11106C12.4928 5.70986 12.6662 5.32509 12.9747 5.04139C13.2833 4.7577 13.7018 4.59832 14.1382 4.59832H23.3155C23.4281 3.34503 24.0492 2.1765 25.0555 1.32467C26.0617 0.472844 27.3796 0 28.7474 0C30.1153 0 31.4331 0.472844 32.4394 1.32467C33.4456 2.1765 34.0667 3.34503 34.1793 4.59832H43.0111C43.4475 4.59832 43.866 4.7577 44.1746 5.04139C44.4831 5.32509 44.6565 5.70986 44.6565 6.11106V12.4986C44.6543 13.6117 44.1735 14.6789 43.319 15.4674C42.4644 16.256 41.3053 16.7018 40.0946 16.7078ZM14.1505 5.36226C13.9323 5.36226 13.7231 5.44194 13.5688 5.58379C13.4145 5.72564 13.3278 5.91803 13.3278 6.11863V12.4986C13.3289 13.4101 13.7215 14.2844 14.4203 14.9311C15.1191 15.5777 16.0674 15.9445 17.0588 15.9514H40.0946C41.0907 15.9504 42.0458 15.5865 42.7505 14.9393C43.4552 14.2921 43.8522 13.4144 43.8544 12.4986V6.11106C43.8544 5.91046 43.7677 5.71807 43.6134 5.57623C43.4591 5.43438 43.2498 5.35469 43.0317 5.35469H33.7885C33.6794 5.35469 33.5748 5.31485 33.4977 5.24392C33.4205 5.173 33.3772 5.07681 33.3772 4.97651C33.3772 3.84812 32.8896 2.76595 32.0218 1.96806C31.1539 1.17017 29.9768 0.721921 28.7495 0.721921C27.5221 0.721921 26.345 1.17017 25.4772 1.96806C24.6093 2.76595 24.1217 3.84812 24.1217 4.97651C24.1217 5.07681 24.0784 5.173 24.0013 5.24392C23.9241 5.31485 23.8195 5.35469 23.7104 5.35469L14.1505 5.36226ZM28.7618 7.25318C28.2807 7.24869 27.8117 7.1137 27.4137 6.86515C27.0157 6.6166 26.7063 6.26554 26.5245 5.856C26.3426 5.44646 26.2963 4.99667 26.3913 4.56303C26.4864 4.12939 26.7186 3.73121 27.0588 3.41842C27.3991 3.10562 27.8322 2.89214 28.3038 2.80474C28.7755 2.71734 29.2647 2.75991 29.7102 2.92712C30.1557 3.09432 30.5375 3.37872 30.8079 3.74465C31.0782 4.11057 31.225 4.54174 31.2299 4.98407C31.2305 5.28228 31.1665 5.57761 31.0416 5.85284C30.9168 6.12807 30.7336 6.37769 30.5027 6.58714C30.2718 6.79659 29.9979 6.96169 29.6969 7.07279C29.3959 7.1839 29.0738 7.23879 28.7495 7.23427L28.7618 7.25318ZM28.7618 3.51671C28.4424 3.52118 28.1315 3.61236 27.8682 3.77878C27.6049 3.94521 27.4011 4.17946 27.2822 4.45209C27.1633 4.72473 27.1347 5.02359 27.2 5.31112C27.2653 5.59865 27.4215 5.86202 27.6492 6.06815C27.8768 6.27427 28.1656 6.41395 28.4793 6.46962C28.793 6.5253 29.1176 6.4945 29.4123 6.38108C29.707 6.26767 29.9587 6.0767 30.1357 5.83218C30.3127 5.58766 30.4072 5.30049 30.4072 5.00676C30.41 4.8066 30.369 4.60797 30.2864 4.42273C30.2039 4.23749 30.0816 4.06943 29.9269 3.92859C29.7722 3.78776 29.5882 3.67702 29.3859 3.60301C29.1836 3.52899 28.9671 3.49321 28.7495 3.4978L28.7618 3.51671Z" fill="#093F68"/>
</svg>
